<?xml version="1.0" encoding="UTF-8"?>
<svg id="b" data-name="Layer 2" xmlns="http://www.w3.org/2000/svg" width="135" height="135" viewBox="0 0 135 135">
  <defs>
    <style>
      .d {
        fill: #22a6a5;
      }

      .e {
        fill: #3878a6;
      }
    </style>
  </defs>
  <g id="c" data-name="Layer 1">
    <path class="d" d="M3.442,66.921h-.007c-.238-.686-.89-1.184-1.666-1.184-.977,0-1.769.784-1.769,1.75,0,.006.002.011.002.017h-.002s.002,0,.002,0c.01.958.796,1.732,1.767,1.732.766,0,1.412-.484,1.658-1.158h.007s33.991,2.908,33.991,2.908l22.576-3.5-22.576-3.5-33.982,2.934Z"/>
    <polygon class="e" points="25.069 24.232 24.244 25.046 43.433 48.346 60.018 59.982 48.383 43.396 25.069 24.232"/>
    <polygon class="e" points="42.874 77.106 39.768 76.72 37.874 79.334 40.981 79.72 42.874 77.106"/>
    <polygon class="e" points="110.753 25.048 109.939 24.222 86.639 43.412 75.003 59.997 91.588 48.361 110.753 25.048"/>
    <polygon class="e" points="24.31 109.889 25.124 110.714 48.425 91.525 60.06 74.94 43.475 86.575 24.31 109.889"/>
    <polygon class="e" points="109.834 110.647 110.66 109.833 91.47 86.533 74.885 74.897 86.521 91.483 109.834 110.647"/>
    <path class="d" d="M68.079,3.442v-.007c.686-.238,1.184-.89,1.184-1.666,0-.977-.784-1.769-1.75-1.769-.006,0-.011.002-.017.002v-.002s0,.002,0,.002c-.958.01-1.732.796-1.732,1.767,0,.766.484,1.412,1.158,1.658v.007s-2.908,33.991-2.908,33.991l3.5,22.576,3.5-22.576-2.934-33.982Z"/>
    <path class="d" d="M131.558,68.066h.007c.238.686.89,1.184,1.666,1.184.977,0,1.769-.784,1.769-1.75,0-.006-.002-.011-.002-.017h.002s-.002,0-.002,0c-.01-.958-.796-1.732-1.767-1.732-.766,0-1.412.484-1.658,1.158h-.007s-33.991-2.908-33.991-2.908l-22.576,3.5,22.576,3.5,33.982-2.934Z"/>
    <path class="d" d="M66.934,131.558v.007c-.686.238-1.184.89-1.184,1.666,0,.977.784,1.769,1.75,1.769.006,0,.011-.002.017-.002v.002s0-.002,0-.002c.958-.01,1.732-.796,1.732-1.767,0-.766-.484-1.412-1.158-1.658v-.007s2.908-33.991,2.908-33.991l-3.5-22.576-3.5,22.576,2.934,33.982Z"/>
    <polygon class="e" points="77.16 92.551 76.72 95.628 79.281 97.551 79.72 94.474 77.16 92.551"/>
    <polygon class="e" points="57.865 92.551 55.304 94.474 55.744 97.551 58.304 95.628 57.865 92.551"/>
    <polygon class="e" points="37.874 55.666 39.768 58.28 42.874 57.894 40.981 55.28 37.874 55.666"/>
    <polygon class="e" points="55.719 37.672 55.28 40.749 57.84 42.672 58.28 39.594 55.719 37.672"/>
    <polygon class="e" points="79.281 37.672 76.72 39.594 77.16 42.672 79.72 40.749 79.281 37.672"/>
    <polygon class="e" points="97.449 55.665 94.342 55.279 92.449 57.894 95.555 58.279 97.449 55.665"/>
    <polygon class="e" points="92.432 77.093 94.326 79.707 97.432 79.321 95.538 76.707 92.432 77.093"/>
  </g>
</svg>