<?xml version="1.0" encoding="UTF-8"?>
<svg id="b" data-name="Layer 2" xmlns="http://www.w3.org/2000/svg" width="177.695" height="374.958" xmlns:xlink="http://www.w3.org/1999/xlink" viewBox="0 0 177.695 374.958">
  <defs>
    <style>
      .h {
        fill: #10649b;
      }

      .i {
        fill: #d9a8dc;
      }

      .j {
        fill: #80379b;
      }

      .k {
        fill: #9e7ec0;
      }

      .l {
        fill: #bbc3dd;
      }

      .m {
        fill: #7fa0d6;
      }

      .n {
        fill: #89b7e2;
      }

      .o {
        fill: #1d74aa;
      }

      .p {
        fill: #7388b9;
      }

      .q {
        fill: #9794d2;
      }

      .r {
        fill: #5bc6e7;
      }

      .s {
        fill: #d2daea;
      }

      .t {
        fill: url(#g);
      }

      .u {
        fill: #67b4df;
      }

      .v {
        fill: #f0eaf6;
      }

      .w {
        fill: #dcbfe2;
      }

      .x {
        fill: #1c518e;
      }

      .y {
        fill: #e3f5fb;
      }

      .z {
        fill: url(#e);
      }

      .aa {
        fill: #2ba4d1;
      }

      .ab {
        fill: #662486;
      }

      .ac {
        fill: #8adff7;
      }

      .ad {
        fill: url(#f);
      }

      .ae {
        fill: #b350bd;
      }

      .af {
        fill: #516fa7;
      }

      .ag {
        fill: #7869ae;
      }

      .ah {
        fill: #639bcc;
      }

      .ai {
        fill: #a2addd;
      }

      .aj {
        fill: #4d5ea1;
      }

      .ak {
        fill: #be9bd1;
      }

      .al {
        fill: #6878ae;
      }

      .am {
        fill: #bee7f7;
      }

      .an {
        fill: #7d57a8;
      }

      .ao {
        fill: #f5fefa;
      }

      .ap {
        fill: #6b489d;
      }

      .aq {
        fill: #a2c3da;
      }

      .ar {
        fill: #ba6bc3;
      }

      .as {
        fill: #b683c4;
      }

      .at {
        fill: #877dc6;
      }

      .au {
        fill: #d27dd3;
      }

      .av {
        fill: #4a368e;
      }

      .aw {
        fill: #9868b6;
      }

      .ax {
        fill: #8fa1c7;
      }

      .ay {
        fill: #fdfcfe;
      }

      .az {
        fill: #cbc9ea;
      }

      .ba {
        fill: #dc96dc;
      }

      .bb {
        fill: #9047a6;
      }

      .bc {
        fill: #1b85ba;
      }

      .bd {
        fill: #4f81b7;
      }

      .be {
        fill: #b3aadc;
      }

      .bf {
        fill: #574f98;
      }

      .bg {
        fill: #ecdbf1;
      }
    </style>
    <linearGradient id="e" x1="299.047" y1="131.56" x2="305.795" y2="283.41" gradientTransform="translate(70.768 122.301) rotate(-90) scale(.294)" gradientUnits="userSpaceOnUse">
      <stop offset="0" stop-color="#bd5bc5"/>
      <stop offset="1" stop-color="#bf9ad6"/>
    </linearGradient>
    <linearGradient id="f" x1="-233.843" y1="118.925" x2="-462.938" y2="298.36" gradientTransform="translate(70.768 122.301) rotate(-90) scale(.294)" gradientUnits="userSpaceOnUse">
      <stop offset="0" stop-color="#8faedd"/>
      <stop offset=".144" stop-color="#c9ddf3"/>
      <stop offset="1" stop-color="#d2f1fb"/>
    </linearGradient>
    <linearGradient id="g" x1="250.836" y1="178.416" x2="215.439" y2="256.793" gradientTransform="translate(70.768 122.301) rotate(-90) scale(.294)" gradientUnits="userSpaceOnUse">
      <stop offset="0" stop-color="#782d99"/>
      <stop offset="1" stop-color="#9971c1"/>
    </linearGradient>
  </defs>
  <g id="c" data-name="Layer 1">
    <g id="d" data-name="Generative Object">
      <path class="s" d="M53.906,364.387l2.496,2.055-.294-2.055c3.006,2.398,3.758-4.394,5.872,2.055,2.637-.939,2.67-4.263,5.726-3.23-.584,3.74,2.727,1.644,4.992,1.468l7.634,5.872c-1.112,2.059.662,2.753,2.055,3.817-.048.123.025.402,0,.587h-20.847c-.22-4.14-5.604-5.333-7.047-8.075-.487-.926-.442-2.193-.587-2.496Z"/>
      <path class="w" d="M35.995,109.228c.185-.218,3.651-2.374,4.551-3.23.81-.771,1.609-.965,1.321-2.349.904-.321,3.362-.005,3.817-1.321.278-.804-.365-1.738-.294-2.349.01-.085.955-.901.881-1.468-.213-1.631-2.614-.731-2.936-1.174-.039-.053.59-1.109.587-1.174-.023-.542-.378-2.815-.294-2.936.236-.34.97.045,1.174-.294.198-.328-1.99-5.305,3.083-5.432.263,1.394-.201,3.039,1.762,3.23-.038-1.136,2.43-2.332,2.496-2.496.458-1.139-.58-4.092-.294-5.579.094-.49,1.13-1.273,1.174-1.468.356-1.561-2.423-6.657-2.643-8.809-.275-2.698.409-4.704,1.174-7.194,2.869,3.2,5.233,6.764,9.396,8.515v.587c-.353.354-.783,1.228-1.028,1.468s-.433-.712-1.321.147c-2.886,2.789-.044,3.857,0,4.111.195,1.137-.221,3.514.294,5.285.308,1.058,1.693,2.574,2.055,3.523.282.74-.322,1.399-.294,1.468.322.798,1.08,2.505,1.468,3.23.181.338.975-.045,1.174.294.52.881-4.159,6.471-4.698,8.221-.326,1.058.099,3.405-.881,4.698.782.08,2.111-2.267,2.349-2.789l2.349,1.028c-.426,1.003-3.688,1.476-2.055,2.789-.795.484-2.159,1.442-2.936,1.762-6.315,2.597-8.635,1.224-14.681,1.174-2.604-.021-4.871.378-7.341.294-.058-.535.263-1.38.587-1.762Z"/>
      <path class="i" d="M58.31,58.725c3.424.474,6.218.898,9.102-.881-.269,2.547-5.75,4.305-5.285,6.9.586,1.906,4.113,1.67,3.817-.587-.031-.238-.882-.559-.881-1.174.002-1.67,5.852-5.04,4.404-6.9,3.174-3.024,6.05-6.693,7.047-10.864.17-.712-.077-4.189,1.468-2.936-.17.305-.892.931-.44,1.174,3.18-.26,7.782-1.183,10.864-.881,2.103.206,7.945,1.983,6.46,4.992-1.134.374-3.931-1.289-4.404-1.174-.932.226.383,1.347-.587,2.055-.109.08-2.517.508-2.643.587-2.395,1.522-2.738,5.184-3.083,7.781,2.443.394,2.385-2.274,4.111-3.083-.183.469-.376.324,0,.881-1.958,1.313-3.043,4.245-5.285,5.579-1.552.923-3.355,1.081-4.992,1.762-1.217-1.285-5.272-1.063-7.047-.881-3.021.31-3.059,3.833-4.698,6.166-1.379-.021-2.488.218-3.964-.294-.819.632.99,2.707,1.028,2.936-2.343-.956-4.779-3.519-6.46-5.432-.179-.204-2.41-4.422-2.643-2.643-.328,2.506,6.753,8.482,6.753,11.892-4.163-1.751-6.527-5.315-9.396-8.515.627-2.04.293-2.466,1.909-4.111,1.648-1.678,3.481-1.621,4.845-2.349Z"/>
      <path class="bg" d="M124.963,4.404c1.272.514,2.161.749,3.377,0l-2.496-.44c.045-1.616,1.592-.441,1.762-1.615,4.452-.066,8.913-.172,13.36,0,1.87.698,1.753,2.397,2.496,3.67.197.338.935-.046,1.174.294.373.53-1.046,2.108-.294,3.964.153.376,3.537,4.095,3.817,4.111-.692.208-.521.539-.294,1.028,1.219,2.615,5.198,2.768,7.634,3.083.031.124.266.569.294.587-1.002,1.184-4.042,3.27-5.579,3.817-.085.03-.202-.026-.294,0-3.891-3.251-8.994-3.019-11.598-7.634-1.413.776-1.585,2.499-3.67,2.055-.492-.429-1.413-.637-2.349-1.615-1.725-1.802-.984-4.717-4.992-3.377-1.115-.79-5.016-5.433-4.111-6.607.299-.387,2.116.311,1.762-1.321Z"/>
      <path class="w" d="M68.881,43.75c.763-.596,3.562-2.351,3.817-3.083.32-.917-.434-4.275-.294-5.285.03-.217.732-2.187.881-2.496,1.627-.393,5.659-.75,4.698-2.936.792-.452,4.164-2.728,4.404-3.377.657-1.775-.833-5.233-.587-7.781,1.175,2.667,1.855,4.397,3.964,6.46.048.047.855-.117,1.321.294,3.736,3.292.154,4.024-.294,6.313-.686,3.511,3.458,6.623-4.551,4.551l1.615,1.468c-1.822.143-5.036,2.903-5.872,4.404-1.545-1.252-1.298,2.225-1.468,2.936l-1.028-1.468c-1.689,1.367-6.593,3.951-6.607,0Z"/>
      <path class="w" d="M117.329,2.936c2.665-.21,5.24-.5,7.928-.587.778-.025,1.57.012,2.349,0-.17,1.174-1.717-.001-1.762,1.615l2.496.44c-1.216.749-2.105.514-3.377,0-.723-.292-.822-2.183-3.67,0-1.591,1.219-1.815,3.403-2.789,4.992-3.157,1.207-6.175-1.42-8.956-.881-1.492.289-2.569,2.625-3.377,3.817-1.209,1.783-1.915,1.68-3.523,3.523-1.041-.76-1.813.307-1.909.294-.473-.064-2.211-1.455-2.349-1.468-3.037-.294-3.994,1.163-7.487-.587-.371-.186-1.777-1.306-2.055-1.762,5.528.394,8.206,1.698,13.066-2.055,8.541-6.596,2.382-6.315,15.415-7.341Z"/>
      <path class="bg" d="M155.793,19.086c.997.651,4.637,1.824,5.872,1.468.943.769.412.844.734,1.174,1.11,1.137,2.123-.25,3.083,3.083.02.068-.72.387-.587,1.174.056.335.872.473.881.587.121,1.486-.7,7.579-1.174,8.956-.603,1.749-3.922,4.112-5.285,5.579.566-3.584,2.263-5.455,0-9.102-1.8-2.9-6.118-7.068-9.102-8.809v-.294c1.537-.547,4.576-2.633,5.579-3.817Z"/>
      <path class="w" d="M68.881,43.75c.013,3.951,4.917,1.367,6.607,0l1.028,1.468c-.997,4.171-3.873,7.84-7.047,10.864-.416.396-1.654,1.515-2.055,1.762-2.885,1.779-5.678,1.355-9.102.881,9.547-5.095,2.244-5.088,4.404-10.13.123-.286,4.02-3.834,4.551-4.258.067-.054,1.151-.224,1.615-.587Z"/>
      <path class="bg" d="M159.317,41.107c1.363-1.466,4.682-3.829,5.285-5.579-.231,1.86,3.607,3.764,3.817,4.551.308,1.154-1.72,5.086-1.174,6.607-3.816-.46-3.08,6.749-7.634,5.285-.093-2.333-.817-4.889-.881-6.166-.1-1.99.306-2.917.587-4.698Z"/>
      <path class="bg" d="M7.807,182.34c.08.635-.15,1.711,0,2.202.245.803,3.616,2.919,4.258,2.496.339-.224-.045-.959.294-1.174.48-.306,4.934,5.465,5.432,5.872-3.524,1.021-6.523,2.531-9.249,4.992-1.13.021-.698-3.124-2.643-2.055l2.789-3.083-4.992-4.111c2.194-.989,1.114-5.109,4.111-5.138Z"/>
      <path class="bg" d="M17.203,117.156c1.967.229.239,2.189.294,2.496.13.724,1.664,2.948,2.055,3.67.367.678.912,1.299,1.174,1.762.573,1.009,2.447,3.309,2.349,4.258-.056.542-2.412,3.396-2.643,5.432-1.979.335-2.783,3.104-2.055,4.992-.55,2.029-2.374,1.952-2.643-.147-.044-.347-.081-6.29,0-6.753.264-1.499,2.579-4.395,2.643-5.285.085-1.176-1.311-3.05-1.468-4.404-.159-1.364-.161-4.818.294-6.019Z"/>
      <path class="i" d="M88.847,12.332c.279.455,1.684,1.576,2.055,1.762-.599.717-4.156,1.529-4.404,2.202-.499,1.355,1.858,7.273.587,9.249-.466-.411-1.273-.246-1.321-.294-2.109-2.062-2.789-3.792-3.964-6.46.176-1.822,1.853-6.196,3.67-6.753,1.014-.311,2.389.223,3.377.294Z"/>
      <path class="ai" d="M11.624,281.585c1.292-.049-.475-2.129-.587-2.496,1.945-.676,2.37,1.434,2.936,2.789-.609,1.327.396,3.964,1.762,4.404.309.722.839,1.707,1.762,1.762-.002.097-.004.196,0,.294.068,1.883.937,2.687,1.468,4.111.236.632.419,2.922.587,3.23-3.453,1.355-6.839-5.924-8.515-8.809,1.079-1.566,1.127-3.455.587-5.285Z"/>
      <path class="bg" d="M158.73,45.805c.064,1.277.788,3.833.881,6.166.013.337-.347.973-.294,2.349.022.583-.027,1.179,0,1.762-.485-.055-.826.334-1.174.587-.908-.763-2.134-1.115-3.23-1.468-.306-.099-.579-.184-.881-.294,1.814-.971.61-2.007.881-2.789.041-.119,1.823-1.098,2.055-1.468,1.067-1.7-.674-4.481,1.762-4.845Z"/>
      <path class="az" d="M23.956,195.554c.468.299,2.015.47,2.055,1.468-.155.049-2.024,1.113-2.643,1.468-.681.392-2.284,1.005-2.643,1.762-1.649.305-3.562.434-4.404,2.055-1.098-1.8-.668-4.408,1.321-5.285,1.378-.608,4.228-.251,5.872-.587,1.102-.225.525.109.44-.881Z"/>
      <path class="bg" d="M20.433,134.773c-.056.496.298.619.294,1.174-.034,4.566.432,6.015,3.817,9.102-1.044-.379-4.997-1.841-5.285-2.789-.153-.502.549-1.17.294-1.762-.289-.67-1.15-.669-1.174-.734-.728-1.887.077-4.657,2.055-4.992Z"/>
      <path class="az" d="M16.322,202.307c.842-1.622,2.755-1.75,4.404-2.055-.857,1.807.198,2.869.294,4.404-.893,1.86-3.946-1.117-4.698-2.349Z"/>
      <path class="w" d="M19.258,115.101c-.042,1.813,1.001,2.003,1.174,3.083.246,1.535-.707,3.62-.881,5.138-.391-.722-1.926-2.947-2.055-3.67-.055-.307,1.674-2.267-.294-2.496.366-.966.877-2.029,2.055-2.055Z"/>
      <path class="s" d="M21.314,298.322c.689-.951,3.37-1.343,3.817.294-.115.287-.213.844-.294,1.174-.067.275-.321.43-.294,1.174h-3.964c.565-.57.654-2.532.734-2.643Z"/>
      <path class="bg" d="M125.257,2.349c-2.688.087-5.263.377-7.928.587.19-2.839,5.346-1.299,7.194-2.936l.734,2.349Z"/>
      <path class="w" d="M77.983,29.95c.961,2.187-3.071,2.544-4.698,2.936,1.692-3.515,2.431-1.642,4.698-2.936Z"/>
      <path class="w" d="M60.072,103.943c1.727-3.788,3.137-5.433,4.992-8.956.53-1.007,1.883-5.946,2.202-6.019.306-.07,2.05.995,2.202,1.615.263,1.074-.485,6.268-.881,7.341-.537,1.454-2.726,3.008-2.055,4.551-1.923,2.307-3.611,3.731-6.166,5.285-1.633-1.314,1.63-1.786,2.055-2.789l-2.349-1.028Z"/>
      <path class="ak" d="M63.302,69.882c.379,2.306-1.01,3.062-2.349,4.404v-.587c0-3.41-7.082-9.386-6.753-11.892.233-1.779,2.463,2.438,2.643,2.643,1.681,1.913,4.116,4.476,6.46,5.432Z"/>
      <path class="as" d="M77.983,42.282c.836-1.502,4.051-4.262,5.872-4.404,2.419-.189,5.462,1.111,7.781,1.762l-1.028-6.166c.563.124.762-.123,1.174-.294.731,1.621.565,3.28.881,4.992.093.507.243,2.103.294,2.202.168.332,1.09-.861,1.468,0l-.734,1.615c.818.431,2.005-1.732,2.789-.734.168.213.041,2.96,0,3.377-.076.767.177,2.224,0,2.789-.33,1.053-6.924,2.992-8.221,6.313-1.726.809-1.668,3.477-4.111,3.083.346-2.597.688-6.259,3.083-7.781.125-.08,2.533-.507,2.643-.587.97-.708-.345-1.83.587-2.055.473-.115,3.271,1.549,4.404,1.174,1.485-3.009-4.357-4.786-6.46-4.992-3.082-.302-7.684.621-10.864.881-.452-.243.27-.869.44-1.174Z"/>
      <path class="ar" d="M88.26,53.733c1.297-3.321,7.892-5.26,8.221-6.313.177-.565-.076-2.022,0-2.789,2.01.269,2.729,1.981,2.936,3.817-.097.009-.199-.015-.294,0-1.215.194-6.019,3.242-7.781,4.111-.463.228-1.131.529-1.028,1.174-.488.21-1.006.332-1.468.587-.171.094-.43.188-.587.294-.376-.556-.183-.411,0-.881Z"/>
      <path class="as" d="M70.936,61.074c1.775-.182,5.83-.404,7.047.881-4.594,1.911-2.354,1.406-4.992,4.111-.554.568-1,.923-1.762,1.174-1.134-2.338-2.411-3.861-.294-6.166Z"/>
      <path class="w" d="M67.413,57.844c.401-.247,1.64-1.366,2.055-1.762,1.448,1.86-4.402,5.231-4.404,6.9,0,.615.85.936.881,1.174.296,2.257-3.231,2.494-3.817.587-.465-2.595,5.016-4.353,5.285-6.9Z"/>
      <path class="ak" d="M70.936,61.074c-2.117,2.305-.84,3.828.294,6.166-2.164.715-3.526.022-4.992,0,1.639-2.333,1.677-5.856,4.698-6.166Z"/>
      <path class="i" d="M118.503,9.396c.974-1.589,1.198-3.772,2.789-4.992,2.848-2.183,2.947-.292,3.67,0,.354,1.632-1.463.934-1.762,1.321-.905,1.174,2.996,5.817,4.111,6.607-1.113.372-2.484,2.238-3.964,2.349-.375.028-5.721-1.218-6.019-1.468-.516-.432-.831-1.912-1.174-2.496,1.599.102,1.685-.238,2.349-1.321Z"/>
      <path class="w" d="M149.921,22.903c-2.306.647-1.744-.378-3.67-.587-1.496-.162-4.035.309-5.285,0-.391-.097-5.575-4.348-6.313-4.992,2.086.444,2.257-1.28,3.67-2.055,2.604,4.615,7.707,4.383,11.598,7.634Z"/>
      <path class="ai" d="M8.394,273.07c3.181-.907,1.586,1.374,2.349,2.789,1.199,2.223,5.264,3.066,4.111,7.341-1.165.461-.734-.969-.881-1.321-.566-1.356-.991-3.466-2.936-2.789.112.367,1.88,2.447.587,2.496-.807-2.737-5.332-4.272-3.23-8.515Z"/>
      <g>
        <path class="l" d="M11.037,236.367c-.479,1.246-.595,1.981-.881,3.23-.381,1.668-.984,2.371-.881,4.404-.912,2.178-.045,4.18.587,6.166.871,2.735,1.813,3.861,3.817,5.872-.264,2.046.62,4.577,1.468,6.46-.631,2.031-2.245,5.314-2.055,7.341-1.394-.219-4.097,2.017-4.698,3.23-2.102,4.243,2.422,5.778,3.23,8.515.54,1.83.492,3.719-.587,5.285-1.076-1.852-1.463-4.175-2.349-5.432-1.46-2.071-5.671-3.149-7.341-6.166-5.093-9.202,5.921-11.35,5.579-19.379-.094-2.197-1.608-6.031-1.762-8.221-.308-4.388.78-10.4,5.872-11.305Z"/>
        <path class="ay" d="M6.339,267.932c-.005-.149.695-.714.881-.294.429.972-.865.795-.881.294Z"/>
      </g>
      <path class="ba" d="M87.085,25.545c1.271-1.976-1.086-7.894-.587-9.249.248-.673,3.805-1.485,4.404-2.202,3.493,1.75,4.45.293,7.487.587.138.013,1.876,1.404,2.349,1.468.096.013.867-1.054,1.909-.294-.642.736-4.278,4.684-4.404,4.992-.046.112-.296.834-.294.881-.942.127-1.749-.083-2.643-.294-.976-.23-4.795-1.836-5.285-.734,1.72,2.003-.28,3.88-.294,4.111-.041.684.722,2.224.587,3.817-.116,1.372-2.317,4.272.294,4.845l1.028,6.166c-2.319-.651-5.362-1.951-7.781-1.762l-1.615-1.468c8.009,2.072,3.865-1.04,4.551-4.551.447-2.289,4.029-3.021.294-6.313Z"/>
      <path class="i" d="M118.503,9.396c-.664,1.083-.75,1.423-2.349,1.321.343.584.658,2.063,1.174,2.496-.299.683-3.12.185-4.111,0-2.672-.499-4.094-1.202-7.047-.881.808-1.192,1.885-3.528,3.377-3.817,2.78-.539,5.799,2.088,8.956.881Z"/>
      <path class="as" d="M102.648,15.856c1.608-1.843,2.314-1.74,3.523-3.523,2.953-.322,4.375.382,7.047.881-4.96-1.425-3.03,1.053-4.992,3.083-.702.726-2.286.361-2.789.734-1.083.802-.951,2.156-1.174,2.349-.347.3-5.099.935-6.019,1.468.126-.308,3.762-4.256,4.404-4.992Z"/>
      <path class="w" d="M152.27,54.027c.232-.572.68-4.702.881-4.845.51-.364,1.478.073,1.762-.294.236-.305-.869-1.383-.881-1.468-.073-.535.459-6.618.587-7.047.524-1.758,2.543-2.189,2.643-2.349.142-.227.274-3.597,1.174-5.138.197-.337.694-.566.881-.881,2.263,3.647.566,5.518,0,9.102-.281,1.781-.687,2.708-.587,4.698-2.436.364-.694,3.145-1.762,4.845-.233.37-2.014,1.349-2.055,1.468-.271.783.933,1.818-.881,2.789-1.02-.372-1.967.572-1.762-.881Z"/>
      <path class="i" d="M150.215,23.196c2.985,1.74,7.303,5.908,9.102,8.809-.187.315-.684.544-.881.881-1.199-2.148-7.745-7.334-8.515-8.956-.017-.036.461-.307.294-.734Z"/>
      <path class="ar" d="M92.664,38.171c.897-.054.063-1.553.294-2.202.812-2.286,2.825-1.855,4.698-1.909-.702,1.202,2.308,2.649,3.083,2.936,1.958.726,5.146.607,7.194,1.468.062.154-.495.514-.294,1.028.065.164,2.332,2.43,2.496,2.496,1.245.503.908-.12,1.909-.294,1.157-.201,1.982-.613,3.083-.881,1.717,1.17-.696,1.971-1.321,3.377-.235.529.069,2.254,0,2.349-.415.566-1.82.302-2.055.587-.324.392.609,1.43.147,1.909-.358.37-3.773.75-4.404.587-.222-.057-1.638-2.709-3.67-.294-.975-.932-3.106-.996-4.404-.881-.208-1.836-.926-3.548-2.936-3.817.041-.417.168-3.163,0-3.377-.784-.998-1.971,1.165-2.789.734l.734-1.615c-.378-.861-1.3.332-1.468,0-.05-.099-.2-1.696-.294-2.202Z"/>
      <path class="bb" d="M104.409,50.503c.923-.163,3.591.236,4.258.881.775.751-.298,2.109.587,2.349.304.083,4.446-2.917,5.726-2.496-2.883-4.971,1.137-3.446,3.23-4.551,1.675-.884.485-2.601.881-3.964.179-.616,3.657-2.975,4.404-3.377,3.403-1.829,4.942-2.645,5.872,2.055-1.396-.056-.24,1.396-1.321,2.055-6.979-5.305-6.254,5.926-12.773,5.726.161,2.572,2.472,3.173,3.23,5.432-1.152.038-3.07-.734-3.964-.587-.268.044-.104.87-.147.881-1.161.304-2.033-.643-2.496-.587-.772.093-2.275,1.309-3.23,1.174-.265-.037-3.815-2.812-4.258-3.23-.036-.034.017-.715-.44-.881l-1.028-.147c.268-.331,1.1-.669,1.468-.734Z"/>
      <path class="bb" d="M103.822,49.329c2.032-2.415,3.448.236,3.67.294.632.163,4.047-.217,4.404-.587.463-.479-.471-1.516-.147-1.909.236-.286,1.641-.021,2.055-.587.069-.095-.235-1.82,0-2.349.625-1.406,3.039-2.207,1.321-3.377-1.101.268-1.926.68-3.083.881-.005-1.744,7.77-4.335,4.111-1.615l1.762.734c-1.573,2.825-1.848,3.402.294,5.872-2.093,1.105-6.113-.42-3.23,4.551-1.279-.421-5.421,2.578-5.726,2.496-.885-.24.188-1.598-.587-2.349-.666-.645-3.334-1.044-4.258-.881-.358-.252-.54-1.129-.587-1.174Z"/>
      <path class="ae" d="M91.783,33.18c.247-.102,3.72-3.141,3.817-3.377.24-.581.096-2.923.294-3.523.798-2.424,3.18-.725-.587-4.845.893.21,1.701.42,2.643.294.112,2.52,4.657.532,6.607,1.468,1.193.573,2.126,4.731,3.083,6.166l-1.468,1.909.44.734c1.082.281,2.921,1.225,3.377-.587,1.327.165,3.94-1.046,5.432-.881.271.03,4.046,1.653,4.698,2.055.812.501,5.687,4.435,3.523,5.285l-3.23-1.174.44,2.349c-.373.046-2.396.217-2.496.294-.18.138-.145.937-.44,1.468l-1.762-.734c3.66-2.72-4.116-.129-4.111,1.615-1.001.174-.663.796-1.909.294-.164-.066-2.431-2.332-2.496-2.496-.202-.513.355-.874.294-1.028-.217-.541-1.149-3.448-1.321-3.523-3.048-.284-5.867-.969-8.956-.881-1.873.053-3.886-.378-4.698,1.909-.23.649.603,2.148-.294,2.202-.316-1.712-.149-3.371-.881-4.992Z"/>
      <path class="au" d="M95.307,21.435c3.767,4.119,1.385,2.421.587,4.845-.197.6-.054,2.943-.294,3.523-.097.236-3.57,3.274-3.817,3.377-.412.171-.611.417-1.174.294-2.61-.573-.41-3.472-.294-4.845.135-1.593-.628-3.133-.587-3.817.014-.231,2.014-2.108.294-4.111.49-1.102,4.309.504,5.285.734Z"/>
      <path class="bb" d="M125.257,32.592c1.794.236,3.99.712,5.579-.294,1.245.74,7.249,2.764,7.341,3.377.032.215-2.094,3.049-1.468,3.964-3.987-.056-4.106,1.798-6.313,2.349-.855.214-.969-.585-1.028-.587-.93-4.701-2.47-3.884-5.872-2.055-1.053-.711-1.603-.421-2.643-.294l-.44-2.349,3.23,1.174c2.163-.85-2.712-4.784-3.523-5.285-.652-.403-4.427-2.025-4.698-2.055-1.492-.165-4.105,1.046-5.432.881-.52-.064-1.349-.749-1.762-1.174,2.304.823,5.725-1.037,8.075-.587.132.025.227.799.587.881,2.966.672,5.259,1.646,8.368,2.055Z"/>
      <path class="k" d="M143.755,41.988c2.043,1.303,5.514,7.066,4.698,9.69-1.264-1.072-2.672-1.874-3.817-3.083l-.881-6.607Z"/>
      <path class="aw" d="M130.835,32.299c-1.589,1.006-3.785.53-5.579.294,2.483-5.301,3.429-1.572,5.579-.294Z"/>
      <path class="ae" d="M107.639,29.362c.118.177.55.843.587.881.413.425,1.242,1.11,1.762,1.174-.456,1.812-2.295.868-3.377.587l-.44-.734,1.468-1.909Z"/>
      <g>
        <path class="z" d="M97.95,21.728c-.002-.046.248-.769.294-.881.92-.533,5.672-1.168,6.019-1.468.223-.193.091-1.547,1.174-2.349.503-.373,2.088-.008,2.789-.734,1.962-2.03.031-4.508,4.992-3.083.991.185,3.812.683,4.111,0,.298.25,5.645,1.496,6.019,1.468,1.48-.111,2.851-1.977,3.964-2.349,4.008-1.34,3.266,1.574,4.992,3.377.936.978,1.857,1.186,2.349,1.615.738.644,5.922,4.895,6.313,4.992,1.25.309,3.79-.162,5.285,0,1.926.209,1.364,1.234,3.67.587.092-.026.209.03.294,0v.294c.167.427-.311.698-.294.734.77,1.621,7.316,6.807,8.515,8.956-.9,1.542-1.032,4.912-1.174,5.138-.1.16-2.119.591-2.643,2.349-.128.429-.661,6.512-.587,7.047.012.085,1.117,1.163.881,1.468-.283.367-1.252-.07-1.762.294-.2.143-.649,4.273-.881,4.845-1.989,1.008-2.781-1.47-3.817-2.349.816-2.624-2.655-8.387-4.698-9.69-1.612-1.029-5.165-2.322-7.047-2.349-.626-.915,1.5-3.749,1.468-3.964-.092-.612-6.096-2.637-7.341-3.377-2.15-1.278-3.096-5.007-5.579.294-3.109-.41-5.402-1.384-8.368-2.055-.36-.082-.456-.856-.587-.881-2.349-.449-5.771,1.41-8.075.587-.037-.038-.469-.704-.587-.881-.957-1.435-1.89-5.593-3.083-6.166-1.95-.936-6.495,1.052-6.607-1.468Z"/>
        <path class="ae" d="M119.678,26.573c-.403-.551,3.653-3.07,4.404-2.936-.311.829-3.714,3.88-4.404,2.936Z"/>
        <path class="ay" d="M145.81,31.271c-.161-.446.433-.646.587-.294.189.43-.459.647-.587.294Z"/>
        <polygon class="ay" points="144.048 33.62 144.195 33.18 144.636 33.326 144.489 33.473 144.048 33.62"/>
      </g>
      <g>
        <path class="am" d="M121.439,313.003c-1.137,2.26-3.865,3.966-2.936,7.194,1.045,3.632,8.924,5.71,9.396,12.626.453,6.637-4.967,8.698-5.285,12.479-.149,1.773,2.13,6.392,3.67,6.753,1.167.274,4.611-1.549,6.753-1.174,1.676.293,5.121,3.171,6.9,3.817,2.709,4.068,2.853,5.646,4.404,9.983.225,2.392-5.141,3.652-5.285,3.964-.239.516,1.96,5.424,2.349,6.313h-.881c-.479-1.025-1.148-3.144-1.762-3.964-1.239-1.654-5.243-4.081-6.166-5.285-2.145-2.797-3.187-5.895-6.166-9.543-.504-.617-1.821-1.435-2.349-2.055-.833-.979-2.24-3.141-3.23-4.404.404-1.892-.382-3.495,0-5.432.502-2.543,2.787-3.353,2.936-5.579-.293-.625-3.698-2.26-4.404-2.789.827-4.259-5.222-7.154-5.285-11.011-.037-2.244,4.031-9.244,5.285-11.598,2.519-4.728,6.993-7.947,3.817-14.241-2.609-5.171-11.028-6.561-15.856-9.249.499-1.288,3.178.465,4.258.587,4.802.542,8.822-.683,11.892,4.845,3.547,6.388.812,12.066-2.055,17.764Z"/>
        <path class="aa" d="M100.299,337.08c1.382.134.889-3.531,1.615-4.111.081-.065.957.338,2.055-.294,6.916-3.976,3.466-3.054,5.726-8.956,1.538-4.016,4.548-7.705,5.872-11.892.157.134,1.1-.198,1.468.147,1.059.991-4.023,7.261-4.698,8.956-.595,1.496-1.722,5.821-1.762,7.341-2.898,2.41-1.29,5.792-2.055,8.075-.292.87-1.974,1.978-2.055,2.643-.101.823,3.69,7.729,4.551,8.075.609.244,1.923-.391,2.643,0,.631.343.951,2.093,1.321,2.496,2.708,2.947,5.966,4.345,8.809,7.341,1.61,1.696,2.08,5.001,4.992,4.845.566,1.313,1.189,3.977,1.762,4.845,1.211,1.835,4.842,2.387,6.166,4.111.656.854,1.097,3.218,2.055,4.258h-4.992c-3.706-3.872-8.248-4.613-11.451-9.396-.564-.843.028-.984,0-1.028-1.706-2.679-3.65-5.221-5.138-8.075-10.284.128-18.003-9.254-16.883-19.379Z"/>
        <path class="bc" d="M122.32,365.562c3.203,4.783,7.745,5.524,11.451,9.396h-8.809c-1.419-2.839-7.874-7.478-2.643-9.396Z"/>
        <path class="r" d="M126.431,356.166c2.979,3.648,4.021,6.745,6.166,9.543.923,1.204,4.927,3.631,6.166,5.285.614.82,1.283,2.939,1.762,3.964h-1.762c-.959-1.039-1.399-3.403-2.055-4.258-1.324-1.724-4.955-2.276-6.166-4.111-.573-.868-1.196-3.532-1.762-4.845-.8-1.856-1.826-3.61-2.349-5.579Z"/>
        <path class="aj" d="M82.387,374.371c.318-.812,1.687-.487,1.909-1.468,1.167.216,6.988,1.299,7.634,1.174.154-.03,1.062-.965,1.321-1.174-.049.337.228.252.294.294,1.014.645.881-1.391,0-1.762,1.556,1.046,2.852.216,2.349,3.523h-13.507c.025-.185-.048-.464,0-.587Z"/>
        <path class="ai" d="M145.223,119.799c-.893,2.304,5.112,1.723,6.607,2.055.708.157,2.966,1.692,4.111,1.762,3.229.198,2.889-1.756,3.964-2.349,2.191-1.209,5.668-1.419,6.46-4.404.007.059.494.44.587,1.028.091.575-1.724,1.159.881,2.789-1.982,2.431-3.806,4.13-6.166,6.166-2.713.192-4.635.901-7.634,0-.5-.426-1.11-1.295-1.909-1.174-1.294.195-4.172,4.728-4.551,6.019-.186.634.498,1.511.294,1.762-.34.417-1.762-.122-2.055.294-1.188,1.683,3.849,3.245-1.468,6.019-.858.448-2.985.224-3.817,1.321-.13.627,3.867,3.853,4.404,4.698.117.184-.116.946,0,1.174.307.608,1.073.339,1.174.587.181.445-2.146,1.186-2.055,1.909-.121-.2-1.176-.88-1.468-1.321-.399-.603-4.023-7.591-4.551-7.487-.994,1.757.211,3.357,1.321,4.992-2.177.472-5.427-6.832-6.9-5.872-.815.531,1.823,3.918,2.202,4.551.227.38-.308.418-.294.44-4.693-5.396-7.109-12.359-4.111-18.939,2.69-5.902,9.195-6.213,14.975-6.019Z"/>
        <path class="s" d="M29.535,302.433c.403-1.115,2.07-1.684,2.643-2.349.506,1.13,1.621.005,2.349,0,1.943-.013,3.974.555,5.872.881.678.522,1.356,3.231,1.468,3.377.668.866,4.647,4.21,5.872,4.845,1.075,1.406,2.468,2.528,3.67,3.817-5.33-8.051,1.796-2.011,1.615-.44-.106.916-1.405-.108-1.174,1.174,1.449.687,2.315,1.163,2.349,2.789.04,1.896-1.394,2.127-.881,4.551.298,1.407,2.105,3.581,3.523,3.964l-6.313,3.817c-2.852-3.501,3.1-4.993.734-8.809.45-.282,1.175-.327,1.174-1.028-.518-.303-1.74-2.786-1.909-2.789-.192-.004-1.937,1.677-3.23,1.762-1.872.122-2.867-1.35-3.817-1.468-.881-.109-4.798-.294-5.872-.294-1.488.001-4.055,1.318-6.166.881-1.602-.332-4.408-3.77-4.551-5.432-.299-3.466,1.427-2.155,1.762-2.643.474-.69,3.142-6.536,2.496-6.9-.359.267-1.447.254-1.615.294Z"/>
        <path class="l" d="M47.153,336.787c2.928,1.667,6.43,3.35,9.543,1.174.633-.442,2.42-3.246,2.643-3.23.308.023.474.862.587.881.09.015,1.001-1.373,1.028,0-.505,1.948-.386,4.774-.587,6.9-.174,1.833-1.401.153,0,3.377.172.395.437.774.587,1.174-2.899,2.842-3.33,6.983-8.075,8.221-3.025.789-4.14-.404-6.9-.881-.582-2.098-1.31-13.173-.881-15.122.229-1.038,1.96-2.216,2.055-2.496Z"/>
        <path class="be" d="M152.27,73.7c1.614.383,7.397,2.224,5.579-.587.666-.607,3.515,2.6,3.817,3.083.262.419-.316.84-.294.881.274.503,1.596,1.341,1.762,1.762.056.142-.735,2.674.44,2.789.289.028,2.098-3.164,3.964-1.174-.006.194.008.393,0,.587-.044,1.036-.104,4.03.294,4.845.232.475,1.694.952,1.762,1.028.5.558.04.937,1.174,1.762l.587,27.013c-1.212,1.996-2.049,3.183-3.523,4.992-2.605-1.631-.79-2.215-.881-2.789-.093-.588-.58-.969-.587-1.028-.022-.19.022-.397,0-.587,2.492-1.358,1.467-2.652,1.468-4.698l.734,1.174c2.502-3.98.08-7.57-.734-11.305-.346-1.587-.13-4.208-.587-5.726-.746-2.475-1.036-.928-1.909-1.762-2.838-2.712-.562-7.191-3.377-10.277-1.022-1.121-2.875-2.403-4.111-1.468l-2.936-.881c.241-3.878-1.9-2.104-2.349-3.083-.827-1.803,2.044-3.469-.294-3.964v-.587Z"/>
        <path class="s" d="M51.263,320.05c2.366,3.816-3.586,5.308-.734,8.809l6.313-3.817c1.294.35,3.521-.395,5.432,1.468s-.593,2.953,1.615,3.523c-.596.903-2.719,4.739-2.936,5.579-.027-1.373-.938.015-1.028,0-.113-.019-.279-.858-.587-.881-.222-.017-2.01,2.788-2.643,3.23-3.113,2.175-6.615.493-9.543-1.174.238-.696-.001-3.311.294-4.551.141-.592,1.469-1.647,1.468-1.762-.001-.21-2.16-2.92-2.496-3.377-.022-.03-.368.602-.734.147-.386-.48-1.271-4.038-1.174-4.404.055-.207,3.44-2.103,3.67-2.202.152-.065,1.769.236,3.083-.587Z"/>
        <path class="l" d="M144.342,139.765c.74.76,1.693.706,2.643.294,1.154,1.463,3.501,1.992,5.285,2.349.052.01-.018.467.881.587l-.881,2.496c.156.502,4.127.4,4.404,3.523.106,1.191-1.799,4.214.44,3.083.603-.305.547-.52,1.321-.881-1.34,1.492-.295,1.623-.294,1.909.009,2.391-.922,5.76-1.762,8.075-1.02.742-.338-1.185-.294-1.321.309-.95,2.013-4.498,1.028-5.138-.055-.036-.368.705-1.174.587-.095-.014-.328-.908-.587-.881-.231.024-1.554,3.786-1.762,3.817-1.061.157-1.296-1.354-2.936-.881-.987.285-2.299,2.12-2.936,2.936l-.44-2.643c.942-3.025-.366-3.001-1.468-4.992-.57-1.029-1.171-2.248-1.762-3.23-.09-.722,2.236-1.464,2.055-1.909-.101-.248-.867.02-1.174-.587-.116-.229.117-.991,0-1.174-.538-.845-4.534-4.071-4.404-4.698.832-1.098,2.959-.874,3.817-1.321Z"/>
        <path class="l" d="M60.953,347.063c.108.287.785.967.881,1.468.285,1.493-.687,9.176-1.909,9.983-.082.054-.628-.085-1.321.294-.445.243-1.086-.192-1.468,1.028,2.267,1.48,3.836,3.45,6.166,1.028,1.742-1.811.958-3.517,2.055-5.579,1.26,1.332,2.646,2.429,3.817,3.817-.414,1.427-1.264,2.803-1.468,4.111-3.056-1.033-3.088,2.291-5.726,3.23-2.114-6.45-2.867.343-5.872-2.055l.294,2.055-2.496-2.055c-1.927-3.999-6.804-5.935-7.928-9.983,2.76.477,3.875,1.67,6.9.881,4.745-1.238,5.175-5.38,8.075-8.221Z"/>
        <path class="az" d="M170.768,88.674c2.971,2.159,6.015,1.188,6.753,6.313,1.017,7.062-2.634,14.882-6.166,20.7l-.587-27.013Z"/>
        <path class="bf" d="M21.02,204.656c-.096-1.535-1.151-2.597-.294-4.404.359-.757,1.961-1.37,2.643-1.762,2.709.191,5.349.567,8.075.587.059,0,.772-.59,1.028-.587,2.465.029,4.85.859,6.46.881-.817,1.024-2.893.221-3.67.294-.288.027-1.101.877-1.174.881-.608.032-2.948-.613-3.523-.587-2.372.107-4.805.407-7.194.44-.483,1.538,1.357,1.999,1.762,3.23.559,1.7-.554,3.509-.294,4.698.132.604,1.428,1.503,1.468,1.762.169,1.099-5.363,7.032-3.67,8.956.294.334,1.93-.198,1.321,2.349-.598-.321-1.121.024-1.174,0-.845-.373-1.933-1.136-2.643-1.762,1.38-5.47,1.226-9.444.881-14.975Z"/>
        <path class="aj" d="M9.275,244.001c.028.56.462,1.886.44,2.643,1.614-1.671,3.386-5.938.44-7.047.285-1.248.402-1.984.881-3.23,2.553-6.648,7.25-9.398,9.102-16.737.71.626,1.798,1.389,2.643,1.762.002,1.944-1.385,3.121-2.055,4.551-.225.48.432.914.294,1.174-1.227,2.31-3.823,3.171-4.404,5.726-2.351,1.74-4.784,2.426-4.404,6.019.026.248,1.147,1.804,1.174,2.055.057.51-2.005,8.382-2.349,9.102-.404.845-.672.374-1.174.147-.632-1.986-1.499-3.988-.587-6.166Z"/>
        <path class="w" d="M30.122,146.518c.049-.053,1.154-.406,1.321-.587.884-.958,1.432-3.365,3.377-3.817,2.054.689,3.715,1.748,5.579,2.789-.035,1.192-1.392,1.778-1.468,1.909-1.218.647-1.001-.635-1.615-.587-.249.019-3.516,2.888-3.817,3.23-1.496,1.698.178.76-.147,1.909-.033.116-1.045,1.1-1.468,1.909-.027.051-.704-.037-.881.734-.342,1.494.584,2.471.587,2.789-1.778.298-2.226-.435-3.23-1.615,5.137-3.887,1.028-1.775-.881-6.019,1.336-.271,1.831-1.772,2.643-2.643Z"/>
        <path class="l" d="M154.032,126.846c1.207,1.029,1.618,2.899,3.523,2.936-.887.712-1.68.906-2.349,1.615-.072.076-.395,1.174-.881,1.909-2.167-.95-3.97,2.347-6.313.881l-.44.734c1.369,1.472,1.494,4.234-.587,5.138-.95.413-1.903.466-2.643-.294,5.317-2.774.28-4.336,1.468-6.019.293-.415,1.715.124,2.055-.294.204-.25-.48-1.128-.294-1.762.379-1.291,3.257-5.824,4.551-6.019.799-.121,1.409.748,1.909,1.174Z"/>
        <path class="ak" d="M20.726,135.948c.608.663,1.398,1.161,2.055,1.762,5.063,4.632,5.992,2.358,11.451,3.817.04.011.548.574.587.587-1.945.452-2.493,2.859-3.377,3.817-.167.181-1.272.534-1.321.587-1.001-.995-2.565-.142-3.23-.294-.297-.068-1.593-.9-2.349-1.174-3.385-3.087-3.851-4.536-3.817-9.102Z"/>
        <path class="ak" d="M19.258,115.101c.051-2.227,1.72-2.416,2.055-3.377.304-.871-.361-3.756,1.028-4.551,1.725-.987,9.564,1.152,12.626.587,2.155-.398,4.119-3.124,6.9-4.111.288,1.384-.511,1.578-1.321,2.349-.9.856-4.366,3.012-4.551,3.23-1.15-1.347-1.51-.008-1.615,0-1.717.125-10.657-2.741-11.305-1.615-.29.505.503,1.846.294,2.643-.062.234-1.144.977-1.174,1.174-.037.24.308,1.534.294,1.615-.314,1.817.305,1.092.294,1.174-.138.979-1.516,2.837-1.468,3.67.015.257,1.509,4.213,1.762,4.845.016.041-.475.025,0,.881-2.835-1.113-.956,1.028-2.349,1.468-.263-.462-.807-1.084-1.174-1.762.174-1.518,1.127-3.604.881-5.138-.173-1.08-1.216-1.27-1.174-3.083Z"/>
        <path class="w" d="M151.976,61.955c.386-.455,2.257-2.528,2.349-2.789.069-.196-.43-3.012.587-3.964,1.096.353,2.322.706,3.23,1.468-.615.448-3.691,2.209-3.523,2.789,2.001,1.642,3.165,1.501,5.579,1.615.164,1.687.531,3.346-.587,4.698-.524.634-1.553.621-2.055,1.468l-1.909-1.468c-1.945,3.792-4.282-1.33-3.67-3.817Z"/>
        <path class="ai" d="M19.846,295.973c2.409,1.286,2.905-1.105,3.817-2.643,1.425-2.401,2.103-6.544,5.872-4.404,3.158,1.793-3.356,7.077-4.404,9.69-.447-1.637-3.128-1.245-3.817-.294-1.599.32-1.525-1.105-1.468-2.349Z"/>
        <path class="s" d="M154.325,133.305c-.341.515-2.028,2.618-2.055,2.789-.176,1.114,1.407,1.171,1.174,2.643-.063.397-1.853,2.422-1.174,3.67-1.784-.357-4.132-.886-5.285-2.349,2.081-.904,1.956-3.667.587-5.138l.44-.734c2.342,1.466,4.146-1.831,6.313-.881Z"/>
        <path class="ai" d="M24.544,300.965c-.028-.745.226-.9.294-1.174,2.417-1.093,4.723-2.525,7.047-3.817.096-.053.553-.112.881-.294.245,2.363,1.073,2.477-.587,4.404-.573.665-2.24,1.234-2.643,2.349-2.407.575-4.815,3.319-4.992-1.468Z"/>
        <path class="ai" d="M18.965,292.449c.949-.088,2.746.415,2.936-.881.203.261,1.473.952,1.762,1.762-.912,1.537-1.409,3.928-3.817,2.643-.333.047-.246-.206-.294-.294-.168-.307-.351-2.598-.587-3.23Z"/>
        <path class="ai" d="M161.666,126.846c-1.603,1.383-2.847,1.922-4.111,2.936-1.906-.038-2.317-1.907-3.523-2.936,2.999.901,4.921.192,7.634,0Z"/>
        <path class="ak" d="M26.893,146.225c.665.152,2.228-.701,3.23.294-.812.87-1.306,2.371-2.643,2.643-.44-.977-.725-1.841-.587-2.936Z"/>
        <path class="aa" d="M64.183,281.585c3.715-1.647,5.05-6.319,8.221-8.809.293,1.773,1.34,2.026,1.468,2.496.258.944-.369,2.366-.294,2.789-2.524,1.242-2.266,3.124-3.23,4.845-.837,1.494-2.53.685-1.762,3.523.913,3.372,5.371,4.055,8.368,3.964.914-.028.448-1.181,2.202-.294.127.064.832,1.026,2.202,1.468,1.255.405,4.908.292,5.579.587,1.165.513,2.398,2.883,2.643,2.936.327.071.827-.762,2.055-.587,1.017.144,3.408,2.896,4.111,2.349.346-.269.017-1.186.147-1.321,1.932-2.007,3.069-.557,5.285-.147.622,1.783,4.909,7.358,6.607,7.928,3.102,1.042,7.771-2.927,11.305-1.615.292,3.51-1.81,6.415-4.111,8.809-.035.158.485,1.233.587,1.321-1.324,4.187-4.335,7.876-5.872,11.892-2.26,5.901,1.19,4.98-5.726,8.956-1.098.631-1.974.229-2.055.294-.726.58-.232,4.245-1.615,4.111.277-2.507,1.38-3.97,1.468-4.551.063-.412-1.388-4.521-1.468-5.579-.198-2.615.135-5.191.294-7.781.32-2.31,8.732-7.132,8.809-8.075.136-1.662-4.034-1.891-5.138-2.496-2.284-1.251-5.107-7.559-5.872-7.928-1.278-.616-4.051.809-5.872.587-1.108-.135-4.16-2.3-4.404-2.349-1.048-.211-4.619,1.355-6.46,1.174-2.463-.242-5.252-3.874-7.341-4.698-1.108-.437-1.136-.193-1.028.881-3.676-2.778-4.432-1.062-7.928-5.872-.474-.652-.84-1.815-1.615-2.349-1.114.465.224,7.331.734,8.515l-.587.294c-2.876-6.109-1.531-9.136.294-15.268Z"/>
        <path class="bc" d="M63.302,248.112c.194-1.972,3.127-7.315,4.845-8.221,1.944-1.025,1.938.045,2.055,0,.148-.057.752-2.391,1.762-2.643,1.356-.337,1.524.923,2.349.881.851-.044,4.504-5.64,4.551-6.019.041-.332-1.068-3.011-.587-4.404.067-.193,2.782-2.095,3.23-2.496.051,1.19.33,2.972,1.174,3.817-.083.149.063,1.18-.294,1.615-.54.658-2.233.716-2.643,1.468-.346.636.033,2.515,0,2.643-.108.413-1.974,2.61-1.028,3.377,1.011-.218,1.719-.492,2.789-.587,1.549-.137,3.194-.112,4.698-.294-1.217,5.039.553,3.482,2.055,5.432.673.873,1.202,3.095,2.643,3.817-1.407,2.107-2.525,7.47-5.138,8.368-1.668.573-1.944-.327-2.055-.294-.337.1-.951,1.161-1.028,1.174-2.399.416-3.584.09-5.872-.587-1.946-2.025-7.222-3.669-9.836-2.936-1.051.294-1.953,1.757-3.083,1.762,1.324-2.657-.202-1.649-.587-3.964-.016-.094-.009-1.814,0-1.909Z"/>
        <path class="bc" d="M91.196,181.166l2.936.294c.037.76.225,5.447.294,5.726.509,2.048,5.347,3.966,6.166,6.9,1.038,3.72-.726,2.882-1.762,5.138-.341.743-2.593,5.55-2.643,5.872-.764,4.961,3.445,10.654-4.404,13.36-2.575-.251-2.929.271-4.992.881-.487.144-.57-.371-2.055.587-1.346-3.313-.105-5.314,2.055-7.781.536-.612.706.783.881.294.094-.264.346-5.288.294-5.579-.035-.197-.758.346-.881-.294-1.033-5.371,2.473-3.891,3.523-7.341.503-1.652-.302-2.771,0-4.111.028-.123,1.379-1.458,1.468-2.055.227-1.524-1.315-3.985-1.468-5.285-.279-2.362.571-4.445.587-6.607Z"/>
        <path class="bc" d="M100.592,319.169c.048-.781-.183-1.488.587-2.202-3.345-1.51-6.525-2.732-6.46-7.047.002-.124.907-1.386.881-1.468-.092-.29-5.138-1.45-5.872-1.615.019-.56-1.429-3.726-1.615-3.817-.633-.311-2.496.332-2.643.294-.762-.2-9.162-3.747-9.69-4.111-.737-.509-1.682-2.321-2.496-2.936-.108-1.074-.081-1.318,1.028-.881,2.088.824,4.877,4.456,7.341,4.698,1.841.181,5.412-1.386,6.46-1.174.245.049,3.297,2.214,4.404,2.349,1.821.222,4.594-1.203,5.872-.587.766.369,3.589,6.677,5.872,7.928,1.105.605,5.274.834,5.138,2.496-.077.943-8.488,5.764-8.809,8.075Z"/>
        <path class="l" d="M54.2,316.527c1.95,2.565,2.885,4.288,6.607,4.111.194-.991-2.474-2.722-2.496-3.083-.066-1.088,2.032.003.587-2.789,2.176-.68,2.036,2.002,2.202,2.055.095.03.118-.912,1.615.294,1.815,1.462,1.224,2.428,1.468,2.789.491.726,3.492,4.406,3.523,4.698.059.558-1.862,1.895-1.762,2.789-.801.718-.679,1.224-.881,1.468-.268.324-.827.647-1.174,1.174-2.208-.571.299-1.658-1.615-3.523s-4.138-1.119-5.432-1.468c-1.418-.383-3.226-2.557-3.523-3.964-.513-2.424.92-2.655.881-4.551Z"/>
        <path class="p" d="M33.352,290.688c.16-.229,1.72-1.552,2.055-1.762,1.236-.775,7.04-2.293,7.341-2.789.335-.553.891-4.951,1.762-5.872-1.007-.126-1.912-.713-2.936-.734-1.148-2.093.994-1.944,2.643-1.762,1.107.122,3.327,1.24,3.817,2.202.468.919-.324,1.287-.294,1.615-2.273.389-.014,1.859,0,3.523-.025.667-.274.964-.294,1.468-2.033.774-3.59,2.395-5.579,3.23-2.283.958-4.835-.177-6.753,3.083-.147.249.039,1.545,0,1.615-.127.226-.393.434-.587.587-.148.117-1.499.442-1.762.587-.328.181-.785.24-.881.294-.883-.47,1.114-4.778,1.468-5.285Z"/>
        <path class="ah" d="M61.247,257.802c.249-1.428,1.993-2.514,2.643-3.817,1.13-.005,2.032-1.467,3.083-1.762,2.614-.733,7.891.911,9.836,2.936.415.431.747.357.587,1.174-2.095-.93-12.148-3.318-13.507-1.321-1.9,2.791,1.149,1.291,1.321,1.321,2.381.422,6.42,4.428,7.781,6.46l-2.936,2.936c-.233-3.702-2.404-4.955-5.872-4.404-2.147-1.121-3.514-.214-2.936-3.523Z"/>
        <path class="o" d="M65.357,290.394c3.496,4.811,4.252,3.094,7.928,5.872.813.615,1.759,2.428,2.496,2.936.527.364,8.927,3.91,9.69,4.111.146.038,2.01-.605,2.643-.294.186.091,1.634,3.257,1.615,3.817-1.196-.268-2.274-.618-3.523-.881-3.288-4.036-8.119-4.14-12.479-6.166-1.006.983-1,.307-2.055-.294l-.734.44c.377.28.601.67.881,1.028-2.209-.178-3.565-.649-5.285-2.055-.583-.885.071-3.375,0-3.67-.175-.723-2.705-3.051-1.174-4.845Z"/>
        <path class="af" d="M41.867,289.807l-.147,3.23,12.479,2.643c.173.139,1.14.149,1.468.734,1.256,2.242.722,6.784.881,9.249-2.49-5.123-3.13-9.971-10.13-9.69l-.44,1.174c-.341-.153-1.904-.15-2.349-.294-.541-.174-2.204-.452-2.349-.734-.304-.594.499-2.908-.147-3.083-.882-.238-4.427,1.039-5.432,1.468-.114.049-.403-.026-.587,0,.039-.07-.147-1.366,0-1.615,1.918-3.26,4.47-2.125,6.753-3.083Z"/>
        <path class="p" d="M56.549,305.663c.096,1.492-.187,3.278,0,4.698.172,1.302.32,1.775.881,2.936l-2.055-.44.147,2.789-1.321-1.028c-.014-3.023-1.039-5.41-.881-8.515.018-.349.961-.935.881-1.762-.063-.652-7.451-6.848-8.221-7.194l.44-1.174c7-.281,7.64,4.566,10.13,9.69Z"/>
        <path class="aj" d="M13.092,269.84c-.19-2.027,1.424-5.309,2.055-7.341.513-1.652,1.058-2.837,1.174-4.698,2.104,2.022.258,2.827,0,5.432-.127,1.28-.323,2.869,0,4.111.879,3.383,2.461,1.641,4.698,1.909,1.197.143,2.794.106,2.349,1.468-.313.392-2.044,4.041-1.468,4.698-1.747-.987-2.468-1.469-4.404-2.349-1.914-.87-4.119-.186-4.404-3.23Z"/>
        <path class="ah" d="M70.055,265.73l2.936-2.936c.323.483.683.906.881,1.468,1.151,3.263-2.091,4.75-1.468,8.515-3.171,2.49-4.506,7.161-8.221,8.809,1.269-4.266,6.077-12.599,5.872-15.856Z"/>
        <path class="ax" d="M67.119,331.208c.014.015.347-.039.294.294-.42.834-.905,1.748-1.174,2.643-.869,2.887-.552,5.669-.881,8.515-.145,1.252-.497,2.539-.587,3.817l-2.936,2.055c-.096-.501-.773-1.181-.881-1.468-.151-.401-.416-.78-.587-1.174.835.353,1.136-.925,1.174-1.321.203-2.093-.328-5.497.294-7.634.676-2.324,3.356-4.425,5.285-5.726Z"/>
        <path class="x" d="M41.867,289.807c1.989-.835,3.546-2.456,5.579-3.23-.062,1.602-.53,3.238.294,4.551,1.267,2.022,4.841,3.245,6.46,4.551l-12.479-2.643.147-3.23Z"/>
        <path class="aj" d="M31.591,276.887c2.569,1.168,7.078-2.842,8.662-2.643.271.034,4.579,2.438,3.964,3.523-1.648-.182-3.791-.332-2.643,1.762-.701-.014-.976.309-1.468.294-4.346-.133-4.977-.72-8.809-1.468l.881-.44c-.924-.153-.439-.806-.587-1.028Z"/>
        <path class="h" d="M86.205,305.956c-1.619-.341-4.778-.722-7.047-1.174.083-.579.896-.375.147-.881-2.128-1.437-5.684-.631-7.487-2.936-.28-.357-.504-.747-.881-1.028l.734-.44c1.056.6,1.049,1.277,2.055.294,4.36,2.027,9.191,2.13,12.479,6.166Z"/>
        <path class="ah" d="M63.889,296.854l.587-.294c.409.951,1.265,1.703,2.055,2.349,1.72,1.406,3.076,1.877,5.285,2.055,1.803,2.305,5.36,1.5,7.487,2.936.749.506-.064.302-.147.881-7.115-1.419-11.724-.399-15.268-7.928Z"/>
        <path class="l" d="M75.634,364.387c1.857.245,2.6,1.665,3.083,1.762.21.042,2.73-.629,2.936-.587.25.051.117.583.147.587l-1.468,4.404-7.634-5.872c.964-.075,1.776-.447,2.936-.294Z"/>
        <path class="x" d="M56.549,310.361c2.936,1.076,8.965,2.786,6.166,6.753-1.497-1.206-1.52-.263-1.615-.294-.166-.053-.026-2.735-2.202-2.055-.395-.763-1.294-1.108-1.468-1.468-.561-1.161-.709-1.634-.881-2.936Z"/>
        <path class="bc" d="M84.736,219.924c1.485-.958,1.568-.443,2.055-.587-2.88,3.074-2.013,5.922-4.111,9.69-.845-.845-1.124-2.627-1.174-3.817-.027-.644-.315-1.536-.294-1.615.065-.246,3.034-3.355,3.523-3.67Z"/>
        <path class="av" d="M23.369,270.721c.247-.31.473-.853.881-.44l.147,3.377,2.789-1.321c.043,2.923-2.751,1.837-1.762,4.551-.105.074-.369.651-.294.881-.09-.028-.209.032-.294,0-.565-.214-1.358-1.343-2.055-1.762-.231-.139-.411-.322-.881-.587-.576-.657,1.155-4.306,1.468-4.698Z"/>
        <path class="aj" d="M91.196,177.055c1.843.342,1.969-1.067,3.23-1.615-.139,2.015-.394,3.988-.294,6.019l-2.936-.294c.01-1.366.006-2.744,0-4.111Z"/>
        <path class="aj" d="M66.238,334.144c.747.504.821,2.978.881,4.111.097,1.846-.071,3.73,0,5.579-.669-.187-.917-1.251-1.762-1.174.329-2.846.012-5.628.881-8.515Z"/>
        <path class="aj" d="M25.424,276.887c1.556-1.089,4.928-1.857,6.166,0,.148.222-.337.875.587,1.028l-.881.44c-.41-.08-.767-.203-1.174-.294-1.221-.271-3.855.063-4.992-.294-.076-.23.188-.807.294-.881Z"/>
        <path class="aj" d="M65.945,327.391c.231-.207.621-.402.881-.587l2.349,2.055c-.418.663-1.537,2.196-1.762,2.643.053-.333-.28-.278-.294-.294-.695-.76-1.41-1.544-2.055-2.349.202-.244.08-.75.881-1.468Z"/>
        <g>
          <path class="x" d="M41.574,235.78c.055-.383.057-.197,0-.587-.139-.958-.843-2.009-.881-2.496-.375-4.87,1.971-9.559,2.055-14.388.831-1.522,3.793-.024,3.964-.147.683-.491-.37-5.358,1.909-5.138l-4.111-.587c.22-3.267,4.398-6.314,1.468-9.102,1.233-.206,5.465,2.813,5.579,3.817.051.446-1.576,5.13-.734,5.726,1.918.371,5.026-.802,6.019-2.496,1.198-2.042-.995-1.576-.881-3.523.031-.536,1.377-3.526,1.468-4.698.556-7.181-3.581-4.431-5.872-9.983.624-.994,3.008,1.9,4.404.881.06-.044-.387-1.285-.294-1.468.566-1.109,1.406-1.058,1.468-1.174,1.242-2.343,1.605-5.306,2.643-7.634,1.092-2.45,4.02-6.66,4.698-8.515.243-.666.005-4.956,1.028-5.138l2.055.587,3.377,2.643c-.703.243-.703.637,0,.881.403,1.553.497,2.196,2.643,2.496l1.615-9.543,6.166,4.404.587-3.23,5.872,5.872c.669-1.446-.725-3.275.587-4.111,3.37,2.565,2.774,4.31,2.789,7.928.006,1.366.01,2.745,0,4.111-.016,2.162-.866,4.244-.587,6.607.153,1.3,1.695,3.762,1.468,5.285-.089.597-1.44,1.932-1.468,2.055-.302,1.34.503,2.459,0,4.111-1.05,3.45-4.557,1.97-3.523,7.341.123.64.846.097.881.294.052.291-.2,5.315-.294,5.579-.174.489-.345-.905-.881-.294-2.16,2.467-3.401,4.468-2.055,7.781-.489.316-3.458,3.424-3.523,3.67-.021.079.266.97.294,1.615-.448.4-3.163,2.303-3.23,2.496-.481,1.393.629,4.072.587,4.404-.047.38-3.701,5.975-4.551,6.019-.825.043-.993-1.218-2.349-.881-1.01.251-1.614,2.585-1.762,2.643-.117.045-.112-1.025-2.055,0-1.718.906-4.651,6.25-4.845,8.221-.12-.407-1.203-.253-1.174.147.031.445,1.454.807,1.174-.147-.009.095-.016,1.814,0,1.909.385,2.315,1.911,1.307.587,3.964-.649,1.303-2.393,2.389-2.643,3.817-1.088.755-3.333,3.511-1.762,4.551,1.116.739,3.476-.834,4.698-1.028,3.468-.55,5.64.702,5.872,4.404.205,3.256-4.603,11.589-5.872,15.856-1.825,6.132-3.17,9.16-.294,15.268,3.545,7.529,8.153,6.509,15.268,7.928,2.269.453,5.428.834,7.047,1.174,1.25.263,2.327.613,3.523.881.735.165,5.781,1.325,5.872,1.615.026.082-.879,1.344-.881,1.468-.065,4.315,3.115,5.537,6.46,7.047-.77.714-.539,1.421-.587,2.202-.159,2.59-.492,5.166-.294,7.781.08,1.058,1.531,5.167,1.468,5.579-.088.581-1.191,2.044-1.468,4.551-1.12,10.125,6.599,19.507,16.883,19.379,1.489,2.854,3.432,5.396,5.138,8.075.028.043-.564.185,0,1.028-5.232,1.917,1.223,6.557,2.643,9.396h-8.515c-.242-1.354.451-2.22,1.762-2.496-1.608.465-2.037-2.159-2.202-2.202-.202-.053-.738,2.871-2.496,2.202,1.255.892,2.727.102,2.349,2.496h-19.966c.503-3.308-.793-2.477-2.349-3.523-4.684-3.15-.599-2.644-.587-4.551.002-.368-2.61-3.857-3.083-3.964-2.321-.527-4.906,2.231-6.313,3.23-.577-.407-.908-.414-1.174.294-.395-.147-.555-.289-.587-.294-.03-.004.104-.536-.147-.587-.207-.042-2.726.629-2.936.587-.483-.097-1.226-1.517-3.083-1.762-.044-1.513-1.836-.559-2.643-1.028-.146-.237,3.392-1.45,3.523-2.349.037-.251-.799-4.721-.881-4.992-1.527-5.057-2.25-3.097-2.349-9.836,0-.046.285.213.294-.881.039-4.988-.133-8.677-6.46-7.047-.06-1.132-.134-3.607-.881-4.111.269-.895.755-1.809,1.174-2.643.225-.447,1.344-1.98,1.762-2.643.233-.37,2.735-3.145,2.202-3.523-1.262-.315-3.401.65-4.551,1.468-.26.185-.65.38-.881.587-.1-.894,1.821-2.231,1.762-2.789-.031-.292-3.033-3.972-3.523-4.698-.244-.362.347-1.328-1.468-2.789,2.799-3.967-3.23-5.677-6.166-6.753-.187-1.42.096-3.206,0-4.698-.159-2.465.375-7.007-.881-9.249-.328-.585-1.296-.595-1.468-.734-1.618-1.307-5.192-2.529-6.46-4.551-.823-1.313-.355-2.949-.294-4.551.019-.504.269-.801.294-1.468.048-1.306.127-2.17,0-3.523-.031-.328.762-.696.294-1.615-.49-.963-2.71-2.08-3.817-2.202.615-1.085-3.693-3.489-3.964-3.523-1.584-.199-6.093,3.81-8.662,2.643-1.238-1.857-4.611-1.089-6.166,0-.99-2.714,1.805-1.628,1.762-4.551l-2.789,1.321-.147-3.377c-.408-.412-.633.131-.881.44.445-1.362-1.152-1.325-2.349-1.468l-.147-.881c4.577.8-2.985-6.156,0-7.047.842-.251,5.531,2.86,7.194,1.028-2.816-3.471-5.311-4.495-6.166-9.396,3.676-.463,8.526.095,11.598-1.909,3.422,6.527,6.387-6.262,6.607-8.662.048-.526-1.022-1.748-.587-3.23.318-1.083,1.703-.901,2.055-3.377Z"/>
          <g>
            <path class="y" d="M116.448,374.958h-.587c.378-2.394-1.094-1.603-2.349-2.496,1.758.669,2.293-2.255,2.496-2.202.165.043.594,2.667,2.202,2.202-1.311.276-2.004,1.142-1.762,2.496Z"/>
            <path class="bd" d="M61.247,257.802c-.578,3.309.789,2.402,2.936,3.523-1.222.194-3.582,1.766-4.698,1.028-1.572-1.04.674-3.796,1.762-4.551Z"/>
            <path class="y" d="M88.26,319.61c1.656-.039,2.399-.883,2.789-2.496.614,2.01.772,2.382,3.083,2.496l-2.055.881.734,1.615c-1.077-1.267-1.526-1.59-2.055.294-.685-1.848-.554-1.976-2.496-2.789Z"/>
            <path class="aj" d="M69.174,328.859l-2.349-2.055c1.15-.818,3.289-1.783,4.551-1.468.533.379-1.969,3.154-2.202,3.523Z"/>
            <path class="ay" d="M43.042,257.361c1.133-.682,1.893-1.029,2.202-2.496.867,2.756,3.69.805.44,3.377l-.147,1.028c-.548-1.411-.967-1.831-2.496-1.909Z"/>
            <path class="y" d="M58.017,230.054c1.291-.855,1.871-.617,1.909-2.496,1.131,2.916,3.77,1.189.734,3.377l-.147,1.321c-.687-1.455-.629-2.028-2.496-2.202Z"/>
            <path class="ay" d="M80.332,196.581c.085-.768,1.585-1.166,2.055-.294.778,1.443-2.205,1.633-2.055.294Z"/>
            <path class="ax" d="M47.74,281.585c.127,1.354.048,2.218,0,3.523-.014-1.664-2.273-3.135,0-3.523Z"/>
            <path class="ay" d="M106.758,356.313c-.127-.494.265-.906.44-1.321l1.615.734c-.277.906-1.709,1.933-2.055.587Z"/>
            <path class="ay" d="M86.205,195.407c-.494-2.169,2.644-.271,1.762.881-.285.372-1.735-.763-1.762-.881Z"/>
            <path class="ay" d="M100.886,356.9c.133-.836,1.735-1.009,2.055-.587.091.12-1.589,1.48-2.055.587Z"/>
            <path class="aq" d="M63.302,248.112c.28.953-1.143.591-1.174.147-.028-.4,1.055-.554,1.174-.147Z"/>
            <path class="ay" d="M85.911,327.831c-.115-.692.785-.869.881-.294.115.692-.785.869-.881.294Z"/>
            <path class="ao" d="M79.158,188.36c0-.507,1.175-.505,1.174,0,0,.507-1.175.505-1.174,0Z"/>
            <path class="ay" d="M58.898,215.373c-.429-.972.865-.795.881-.294.005.149-.695.714-.881.294Z"/>
            <path class="y" d="M77.689,353.964c-.005-.149.695-.714.881-.294.429.972-.865.795-.881.294Z"/>
            <path class="y" d="M75.634,327.538c-.005-.149.695-.714.881-.294.429.972-.865.795-.881.294Z"/>
            <path class="ay" d="M71.817,180.138c-.429-.972.865-.795.881-.294.005.149-.695.714-.881.294Z"/>
            <path class="ay" d="M90.903,341.631c.036-.65.735-.573.881-.294.298.569-.914.899-.881.294Z"/>
            <path class="ay" d="M73.285,323.427c-.156-.214.022-.946.44-.734.456.231.018,1.364-.44.734Z"/>
            <path class="ay" d="M87.673,343.1c.078-.998,1.253-.031.587.294-.322.157-.591-.252-.587-.294Z"/>
            <path class="ay" d="M60.366,207.739c.084-.694,1.316-.184.587.294-.295.193-.591-.261-.587-.294Z"/>
            <path class="ay" d="M41.574,235.193c.057.39.055.204,0,.587-.644-.253-.832-.675,0-.587Z"/>
            <path class="ay" d="M46.859,220.071c-.055-.115.792-.739.881-.294.118.594-.744.578-.881.294Z"/>
            <path class="ay" d="M29.242,258.83c.084-.694,1.316-.184.587.294-.295.193-.591-.261-.587-.294Z"/>
            <path class="ay" d="M72.991,192.47c.084-.694,1.316-.184.587.294-.295.193-.591-.261-.587-.294Z"/>
            <path class="ay" d="M84.149,357.487c.084-.694,1.316-.184.587.294-.295.193-.591-.261-.587-.294Z"/>
            <path class="ay" d="M70.936,172.357c.49.536-.06.648,0,.881-.703-.243-.703-.637,0-.881Z"/>
            <path class="ay" d="M94.72,352.789c.084-.694,1.316-.184.587.294-.295.193-.591-.261-.587-.294Z"/>
            <path class="ao" d="M60.659,217.722c-.161-.446.433-.646.587-.294.189.43-.459.647-.587.294Z"/>
            <path class="ay" d="M51.557,230.348c-.161-.446.433-.646.587-.294.189.43-.459.647-.587.294Z"/>
            <path class="ay" d="M105.584,354.551c-.161-.446.433-.646.587-.294.189.43-.459.647-.587.294Z"/>
            <path class="ay" d="M76.809,208.326c-.401-.756.524-.848.587-.294.004.033-.428.593-.587.294Z"/>
            <path class="y" d="M88.554,324.895c-.161-.446.433-.646.587-.294.189.43-.459.647-.587.294Z"/>
          </g>
        </g>
        <path class="r" d="M103.235,287.458c.154.182.412.413.587.587.105.104.151.176.294.294-.347.394-.168,1.241,0,1.615.5,1.11,3.868,6.022,5.138,6.607,2.518,1.158,10.914-.304,11.598,2.496.066.271.039,5.303,0,5.579-.161,1.146-3.582,6.35-3.523,6.753.122.839,2.12.124,2.055,1.909-1.254,2.355-5.322,9.354-5.285,11.598.063,3.857,6.112,6.751,5.285,11.011-7.489-5.611-6.377-5.151-6.166-13.947.02-.855.18-1.155-.881-1.028.675-1.695,5.757-7.965,4.698-8.956-.368-.344-1.311-.012-1.468-.147-.103-.088-.622-1.164-.587-1.321,2.301-2.394,4.403-5.299,4.111-8.809-3.534-1.312-8.202,2.657-11.305,1.615-1.698-.57-5.984-6.145-6.607-7.928-.98-2.807-1.003-5.098-.881-8.075l2.936.147Z"/>
        <path class="r" d="M110.575,328.272c-.009.353.723,6.387.881,6.9.694,2.248,4.696,3.882,4.992,4.992.097.363-.391.48-.294,1.028.329,1.842-.191,5.471.294,6.607.812,1.904,5.49,3.871,6.313,6.313h1.321c.528.621,1.845,1.439,2.349,2.055.523,1.969,1.549,3.723,2.349,5.579-2.911.156-3.382-3.149-4.992-4.845-2.843-2.995-6.101-4.394-8.809-7.341-.37-.403-.69-2.153-1.321-2.496-.72-.391-2.034.244-2.643,0-.862-.345-4.652-7.251-4.551-8.075.082-.665,1.764-1.773,2.055-2.643.765-2.283-.842-5.664,2.055-8.075Z"/>
        <path class="ac" d="M104.116,288.339c.47.387,2.59,1.112,3.23,1.468,4.828,2.688,13.247,4.078,15.856,9.249,3.176,6.294-1.298,9.513-3.817,14.241.064-1.785-1.933-1.069-2.055-1.909-.059-.403,3.363-5.607,3.523-6.753.039-.276.066-5.308,0-5.579-.685-2.8-9.08-1.338-11.598-2.496-1.271-.584-4.639-5.496-5.138-6.607-.168-.374-.347-1.221,0-1.615Z"/>
        <path class="am" d="M112.337,320.931c1.061-.127.901.172.881,1.028-.21,8.797-1.323,8.336,6.166,13.947.706.529,4.111,2.164,4.404,2.789-.15,2.226-2.434,3.036-2.936,5.579-.382,1.937.404,3.54,0,5.432-.359-.459-1.646-1.153-1.762-1.909-.263-1.712.875-1.65.881-1.762.016-.331-2.525-5.952-3.817-4.845-.098-.548.39-.665.294-1.028-.296-1.11-4.298-2.744-4.992-4.992-.158-.513-.89-6.547-.881-6.9.04-1.52,1.166-5.845,1.762-7.341Z"/>
        <path class="r" d="M116.154,341.191c1.292-1.107,3.833,4.514,3.817,4.845-.005.112-1.144.049-.881,1.762.116.755,1.403,1.45,1.762,1.909.99,1.264,2.397,3.425,3.23,4.404h-1.321c-.823-2.442-5.501-4.409-6.313-6.313-.484-1.136.035-4.764-.294-6.607Z"/>
        <path class="aa" d="M72.404,272.777c-.623-3.765,2.619-5.252,1.468-8.515.921-.755,2.623.603,3.377.294.786-.323,1.334-4.845,5.138-3.23,1.142,1.407,3.6,6.189,5.432,5.579.756-.252,1.229-2.793,1.028-3.377-.163-.474-6.342-5.592-6.166-7.781.077-.013.691-1.074,1.028-1.174.112-.033.388.867,2.055.294,2.613-.898,3.731-6.261,5.138-8.368-1.44-.722-1.97-2.944-2.643-3.817-1.502-1.95-3.272-.393-2.055-5.432,3.806-.461,4.806-2.485,7.047-5.285,2.975-3.718,1.578-1.13,4.258-2.643,1.214-.685,1.533-3.217,2.936-2.936.196.039,2.163,2.25,2.643,2.643.517.423,2.72,1.183,2.789,1.321,1.013,2.014-3.633,3.595.44,6.607,2.33,1.723,4.607.453,3.964,4.111-1.563.946-3.501,3.254-4.551,3.817-2.141,1.148-5.645.506-6.9,2.789-1.626,2.96-.039,6.525,1.762,8.956,1.184,3.43-.755,5.629-.587,8.809-.449.358-1.018.905-1.468,1.174-2.658,1.59-5.361,2.108-8.075,3.817-1.534.966-14.381,10.965-14.534,11.892-.539,3.255,5.27,3.238,7.341,3.67-.899,1.142-2.39.411-3.523.294-6.324-.657-5.181-2.674-6.166-8.221-.075-.423.551-1.845.294-2.789-.128-.469-1.175-.723-1.468-2.496Z"/>
        <path class="ah" d="M102.648,181.46c.861,1.975.549.086.587,0,.838-1.884,2.725-10.363,4.551-10.864.386-.106,3.606,2.046,4.404,2.055.749.009,2.069-1.414,3.083-.587-7.222,4.321-3.173,4.444.294,8.662,2.671,3.249,3.264,4.844,3.817,9.102l9.69,7.194c-.042.901-1.256,3.945-2.202,4.111-1.036.182-1.07-.895-1.174-.881-.358.048-1.702.835-2.055.881-2.891.372-5.724-.557-6.313,3.817-1.871,1.779-2.178,4.87-.881,7.047-.835,1.469-3.812,7.706-4.698,8.221-.924.537-1.851.391-2.349.587.735-3.552-2.765-5.501-3.523-7.781-.562-1.69-.954-6.73,0-8.221l-2.643,2.055.294-8.515c-2.052,2.06-.906-.586-.294-1.909.412-.89,2.047-2.616,2.055-2.789.036-.733-6.149-7.447-6.46-9.102,1.108.13,3.556-3.07,3.817-3.083Z"/>
        <path class="r" d="M93.545,223.741c.053-1.463.309-2.97.587-4.404,3.263.842,6.479,3.545,7.781,3.817,1.792.374,3.891-.555,5.138-.587.139-.004,1.395,1.042,2.643.881,1.118,1.108-.728,2.506-.587,3.083.665,2.731,7.577-2.269,8.809-2.349.459-.03.353.731.881.734-.447.381-1.032.552-.881,1.321.754-.033,2.765,1.871,2.936,1.909-.328,1.124-1.275,3.795-.881,4.845.315.839,2.141-.476,2.643.881-1.958,4.775-8.106,4.636-12.332,7.194.643-3.658-1.634-2.388-3.964-4.111-4.073-3.011.572-4.592-.44-6.607-.069-.138-2.272-.898-2.789-1.321-.48-.393-2.446-2.603-2.643-2.643-1.404-.281-1.722,2.251-2.936,2.936-2.68,1.513-1.283-1.075-4.258,2.643-1.132.568-3.108-2.673-2.936-3.083,4.341-1.536,3.109-1.804,3.23-5.138Z"/>
        <path class="ac" d="M98.537,266.611c.45-.269,1.019-.817,1.468-1.174.76-.605.986-.517,1.762-1.468l1.468.881.587,14.534,2.936.294-2.936,8.368c-.175-.175-.433-.406-.587-.587-.03-.035-.046-.575-.294-.881-1.164-1.434-3.717-4.045-1.468-4.845-1.625,1.585-5.671-2.779-6.166-4.111-.056-.152-.327-3.071-.294-3.23.452-2.143,2.378-1.775,2.643-2.055.081-.086,1.143-1.941,1.174-2.055.05-.177-.309-3.073-.294-3.67Z"/>
        <path class="ax" d="M124.963,166.485c5.484-.239,11.946.081,15.562-4.992.454-.637,1.901-3.567,2.055-4.258.1-.448.638-6.418.587-6.753-.239-1.563-2.918-3.522-3.817-4.845-1.111-1.634-2.315-3.235-1.321-4.992.528-.104,4.152,6.885,4.551,7.487.292.441,1.347,1.121,1.468,1.321.591.982,1.192,2.201,1.762,3.23-.719,2.944-.672,6.085-2.055,8.809-2.146,4.226-11.423,7.545-15.709,7.047-.651-.076-2.221-1.205-2.349-1.174-.292.07.915,1.533-2.055,1.174-.863-.104-.662-.097-1.028-.881.739-.404,1.8-.105,2.349-1.174Z"/>
        <path class="am" d="M118.797,224.916c1.077-.918,6.824-4.242,8.075-3.817l1.762,4.111c-1.1.957-2.981.286-3.817.587-1.505.543-.816,1.348-3.23,1.762-.16.028-.449.65-.734.587-.171-.038-2.183-1.941-2.936-1.909-.151-.769.434-.94.881-1.321Z"/>
        <path class="aq" d="M116.448,211.996c.38-.669.851-1.909,1.762-2.055.941,6.138-.557,9.056-6.166,12.039l-.294-1.762c.886-.515,3.863-6.752,4.698-8.221Z"/>
        <path class="p" d="M124.963,166.485c-.549,1.069-1.61.77-2.349,1.174-1.425.779-2.246,2.166-3.523,2.936-1.059.639-2.806.799-2.936.881.189-1.931,3.318-4.947,5.138-5.285,1.279-.238,2.736.334,3.67.294Z"/>
        <path class="r" d="M100.592,256.627c.579.781,2.103,1.949,2.936,2.936.247,1.977-.634,3.022-1.762,4.404-.776.951-1.002.863-1.762,1.468-.168-3.18,1.771-5.379.587-8.809Z"/>
        <path class="ai" d="M145.81,152.684c1.102,1.991,2.41,1.967,1.468,4.992-.082.265-2.808,4.808-3.523,3.817,1.383-2.724,1.336-5.865,2.055-8.809Z"/>
        <path class="u" d="M109.401,220.805c.498-.196,1.425-.05,2.349-.587l.294,1.762c-.618.329-1.796,1.397-2.349,1.468-1.248.161-2.503-.884-2.643-.881-.039-1.536,1.268-1.337,2.349-1.762Z"/>
        <path class="ac" d="M103.528,259.564c2.304,2.729,3.984,2.596-.294,5.285l-1.468-.881c1.128-1.383,2.009-2.427,1.762-4.404Z"/>
        <path class="n" d="M117.329,204.95c-.328,2.435.613,3.247.881,4.992-.911.146-1.382,1.386-1.762,2.055-1.298-2.177-.99-5.268.881-7.047Z"/>
        <g>
          <path class="ad" d="M110.282,241.065c4.226-2.558,10.374-2.419,12.332-7.194-.501-1.357-2.327-.042-2.643-.881-.394-1.05.553-3.721.881-4.845.285.063.574-.56.734-.587,2.414-.414,1.725-1.219,3.23-1.762.836-.301,2.717.37,3.817-.587l-1.762-4.111c-1.25-.425-6.998,2.899-8.075,3.817-.528-.003-.422-.764-.881-.734-1.232.08-8.143,5.08-8.809,2.349-.141-.577,1.705-1.975.587-3.083.553-.071,1.731-1.14,2.349-1.468,5.609-2.982,7.107-5.9,6.166-12.039-.267-1.744-1.209-2.557-.881-4.992.589-4.374,3.422-3.445,6.313-3.817.353-.045,1.698-.833,2.055-.881.104-.014.139,1.063,1.174.881.946-.166,2.16-3.21,2.202-4.111.28-6.022-7.134-8.851-8.809-12.185-.117-.232-1.443-4.733-1.468-4.992-.056-.572.87-.53.881-.881.028-.926-.729-.919-.587-2.055.038-.306,1.081-1.442,1.174-2.055.247-1.625-.692-2.854-1.174-4.258,1.277-.771,2.099-2.157,3.523-2.936.366.784.165.777,1.028.881,2.97.358,1.763-1.105,2.055-1.174.128-.03,1.698,1.099,2.349,1.174,4.286.498,13.563-2.821,15.709-7.047.715.991,3.441-3.553,3.523-3.817l.44,2.643c.637-.816,1.949-2.651,2.936-2.936,1.64-.473,1.876,1.038,2.936.881.208-.031,1.53-3.793,1.762-3.817.259-.027.492.867.587.881.806.118,1.119-.623,1.174-.587.985.641-.719,4.189-1.028,5.138-.044.137-.727,2.063.294,1.321-.114.314.116,1.025,0,1.321-.655,1.674-5.806,7.584-5.285,9.102,3.795.586,5.339,1.61,5.872,5.579.032.24-.632,3.285-.587,3.523.225,1.193,3.135,2.536,3.23,2.936.209.885-1.434,2.182-1.468,2.349-.362,1.762,2.5,4.348,4.258,4.551,1.016-9.172,3.654-1.112,3.67,3.083.086,22.638-13.278,43.455-33.473,53.146.002,5.485-3.22,11.726-2.643,17.03.433,3.981,5.037,8.65,4.698,12.332-.071.772-1.614,4.661-2.202,5.138-2.079,1.688-7.783,1.248-8.368,3.67-.626,2.592,1.505,5.081,2.055,7.341,1.726,7.084,2.829,10.011-.881,16.737-.342.62-2.887,4.84-3.817,3.964,2.867-5.699,5.603-11.376,2.055-17.764-3.069-5.527-7.089-4.302-11.892-4.845-1.079-.122-3.758-1.875-4.258-.587-.64-.356-2.76-1.081-3.23-1.468-.143-.118-.189-.19-.294-.294l2.936-8.368-2.936-.294-.587-14.534c4.278-2.689,2.598-2.556.294-5.285-.833-.987-2.358-2.155-2.936-2.936-1.801-2.431-3.388-5.995-1.762-8.956,1.255-2.284,4.76-1.641,6.9-2.789,1.05-.563,2.988-2.871,4.551-3.817Z"/>
          <g>
            <path class="aq" d="M128.486,185.424c-.028-.245,1.479-2.213,1.615-2.202.301.023,3.746,3.545,4.551,3.964-1.283-.724-6.029-.545-6.166-1.762Z"/>
            <path class="y" d="M124.376,217.135c.043-.843,4.179-4.308,4.404-2.936.076.464-3.458,3.874-4.404,2.936Z"/>
            <path class="ay" d="M119.09,214.199c.036-.65.735-.573.881-.294.298.569-.914.899-.881.294Z"/>
            <path class="ay" d="M148.453,223.595c-.156-.214.022-.946.44-.734.456.231.018,1.364-.44.734Z"/>
            <path class="ay" d="M156.087,218.016c.084-.694,1.316-.184.587.294-.295.193-.591-.261-.587-.294Z"/>
            <polygon class="ay" points="129.661 241.212 129.808 240.772 130.248 241.212 130.101 241.359 129.661 241.212"/>
          </g>
        </g>
        <path class="k" d="M42.748,140.352c-.687,3.079,1.915,2.234,3.817,3.23.037.019.529.549.587.587-.752,3.144-2.584,1.232-4.258,1.468-.729.103.153,1.194-.294,1.468-.333.205-1.82-.656-1.909.147-.074.669,3.144,2.098,3.817,2.936.413.514.342,2.388,1.468,2.496-.066.032-.999.893-.881,1.174-.452-.248-.698-.728-1.321-.587-.459.47-1.894,3.808-2.643,3.23-.221-1.298.459-2.959.147-4.258-.387-1.609-1.596-1.148-2.349-2.496-.63-1.128-.565-1.962,0-2.936.076-.13,1.433-.717,1.468-1.909-1.864-1.042-3.525-2.101-5.579-2.789-.039-.013-.547-.577-.587-.587.965-.423,2.43-1.47,3.377-1.762.23-.071,2.787-.592,2.936-.587.989.03-.12.728.294,1.174.065.07,1.371-.161,1.909,0Z"/>
        <path class="ap" d="M45.978,152.684c1.513-.741,2.432-.232,3.23-2.496.11-1.591-1.728-.51-2.055-2.055-.684-3.233,4.708-.898,0-3.964-.058-.038-.55-.568-.587-.587-.162-.605.291-.555.294-.587.914-.147,1.983.569,2.496.587.236.008.117-.591.147-.587.523.074.964.152,1.468.294,1.204.339,4.977,2.274,5.285,3.523.059.239-.7,4.678-.881,4.845-.479.442-1.914-.696-2.496-.734-2.313-.153-2.037,1.58-2.496,3.083-.09.295-.785-.002-.881.294-.068.209,3.258,3.146-.587,2.202-1.356-.333-2.752-2.059-3.817-2.643-.118-.281.815-1.142.881-1.174Z"/>
        <path class="k" d="M37.757,186.451c.223.099,2.265.593,2.643.294.374.534,2.358,1.555,2.936,1.762.2,1.766-.254,3.553-.294,5.285l-5.285,2.643c-.433-.133-1.262.109-1.762,0-.084-.018-.87-.849-1.468-.881.707-.16,2.89.065,3.23-.734.27-.635-.346-1.521-.294-1.762.063-.289.88-.547.881-1.174.001-1.001-2.217-4.631-.587-5.432Z"/>
        <path class="ak" d="M38.931,146.812c-.565.974-.63,1.808,0,2.936-.713-.415-2.05,2.321-2.055,2.496-.007.207.591.404.587.44-.1,1.098.078,1.562-.294,2.936-.139.514.667.892-.147.881-.245-1.158-2.411-.504-2.936-.881-.962-.69-.084-1.177-.147-1.615-.106-.746-1.827.449-2.055-.734.424-.809,1.435-1.793,1.468-1.909.325-1.149-1.349-.21.147-1.909.301-.342,3.568-3.21,3.817-3.23.614-.048.397,1.235,1.615.587Z"/>
        <path class="av" d="M47.153,159.731c-2.505,2.892-.261,2.494,0,4.258.578,3.903-2.889,2.42-5.285,2.496.186-.381.807-3.136,1.174-3.964.134-.303.743.01.881-.294.093-.204.076-3.463,1.321-3.964-.001.468,1.791,1.443,1.909,1.468Z"/>
        <path class="ag" d="M26.012,197.022c2.1-.658,6.032-.905,8.515-1.468.598.032,1.384.863,1.468.881-1.297.458-2.833.74-3.523,2.055-.256-.003-.969.588-1.028.587-2.726-.021-5.366-.396-8.075-.587.619-.356,2.487-1.42,2.643-1.468Z"/>
        <path class="k" d="M37.463,152.684c2.415-.151,4.163,1.349,3.083,3.817l-3.377-.881c.372-1.374.193-1.838.294-2.936Z"/>
        <g>
          <path class="k" d="M31.591,156.795c-.004-.318-.929-1.296-.587-2.789.176-.772.854-.683.881-.734.228,1.183,1.949-.012,2.055.734.062.438-.816.925.147,1.615.525.377,2.691-.277,2.936.881.814.011.008-.366.147-.881l3.377.881c1.08-2.468-.668-3.968-3.083-3.817.003-.037-.594-.234-.587-.44.006-.174,1.342-2.911,2.055-2.496.753,1.348,1.962.887,2.349,2.496.313,1.298-.368,2.96-.147,4.258.748.578,2.184-2.76,2.643-3.23.624-.141.869.339,1.321.587,1.065.584,2.462,2.31,3.817,2.643l1.762,2.496-.734.734c-.844-.115-2.015.162-2.789,0-.118-.025-1.91-1-1.909-1.468-1.246.501-1.229,3.76-1.321,3.964-.137.303-.746-.01-.881.294-.367.828-.988,3.583-1.174,3.964-.481.985-.831,2.127-1.174,2.789-.444.857-1.039.043-1.174.294-.945,1.741-2.71,5.102-2.643,6.9-.415.665-1.209,3.294-1.174,4.111.022.513.813,2.384,1.174,2.936-1.498.115-3.027.504-4.551.294-.433-.06-4.233-2.078-4.258-1.028,2.253,2.971,6.003,1.559,8.956,2.496.359.114.632,1.129.734,1.174-1.63.801.589,4.431.587,5.432,0,.627-.818.885-.881,1.174-.052.241.564,1.127.294,1.762-.34.799-2.523.574-3.23.734-2.483.564-6.415.81-8.515,1.468-.04-.998-1.587-1.169-2.055-1.468-1.373-.877-5.299-3.108-6.166-3.817-.498-.407-4.952-6.178-5.432-5.872-.339.216.046.951-.294,1.174-.641.423-4.012-1.693-4.258-2.496-.15-.491.08-1.567,0-2.202-.09-.707.435-1.145.294-1.615-.134-.446-2.852-1.124-2.643-2.936.195-1.69,4.877-3.738,5.285-4.404.135-.22-.559-.851-.294-1.174,1.125-1.37,2.54-2.584,3.67-3.964,2.462-.111,4.861-.216,7.341,0,1.946.17,5.72,1.908,6.9.734,1.295-1.289.361-2.168.587-2.936.665-2.261,2.667-7.176,2.643-9.249Z"/>
          <path class="ag" d="M36.876,183.515c.618-.048,1.568-.538,2.055-.587,1.089.966.701,2.721,1.468,3.817-.378.3-2.42-.195-2.643-.294-.102-.045-.375-1.061-.734-1.174-2.952-.936-6.702.475-8.956-2.496.025-1.05,3.824.968,4.258,1.028,1.524.211,3.053-.178,4.551-.294Z"/>
          <path class="ak" d="M20.433,189.241c-.223-.725.191-1.794.44-2.496,5.925,3.51.153,4.427-.44,2.496Z"/>
          <path class="ak" d="M19.552,174.559c-1.206-2.834,5.67-6.501,1.028.44-.386.084-.874-.079-1.028-.44Z"/>
          <path class="ap" d="M24.544,182.487c-.865-2.591,2.772-2.19,2.936-.587.102,1.001-2.462,2.008-2.936.587Z"/>
        </g>
        <path class="bb" d="M28.067,116.275c.158-2.821-.374-3.831,1.468-6.166,2.036.209,3.493.799,5.872.881,2.47.085,4.736-.315,7.341-.294-.332.247.244,1.14.294,1.174-.383-.032-.796.049-1.174,0-4.311-.561-5.126,5.612-8.662,3.23-.6.387.518,1.485.44,1.909-.03.162-1.638,2.681-1.762,2.789-1.14.999-2.855.823-4.111,1.174-.249-1.575.208-3.167.294-4.698Z"/>
        <path class="ab" d="M42.748,110.696c6.047.049,8.366,1.422,14.681-1.174l.881.44c-6.391,3.185-7.205,9.344-10.13,15.122-.876-5.273-3.94-8.229.44-12.773-2.08-.039-3.909.71-5.579-.44-.05-.034-.626-.927-.294-1.174Z"/>
        <path class="as" d="M35.995,109.228c-.324.382-.645,1.226-.587,1.762-2.379-.082-3.837-.672-5.872-.881-3.992-.41-2.076.613-3.67,1.468-.514.276-2.642.423-3.377,1.468.014-.081-.331-1.375-.294-1.615.03-.197,1.113-.94,1.174-1.174.209-.796-.584-2.138-.294-2.643.648-1.126,9.588,1.74,11.305,1.615.105-.008.465-1.347,1.615,0Z"/>
        <path class="p" d="M139.351,145.637c.899,1.323,3.578,3.281,3.817,4.845.051.335-.487,6.306-.587,6.753-.155.69-1.601,3.621-2.055,4.258-2.105-.716-.359-1.439-.294-1.909.082-.587-.557-1.353-.294-2.055.057-.151,1.017-.05,1.174-.881.087-.458.366-6.423.294-6.753-.067-.307-3.136-3.604-3.377-3.67-2.12-.582-1.402,2.113-3.67-1.468-.014-.022.521-.061.294-.44-.379-.633-3.017-4.02-2.202-4.551,1.473-.96,4.723,6.345,6.9,5.872Z"/>
        <path class="p" d="M145.223,119.799c2.183.073,4.777.66,7.047.881.056.005.52.887.587-.294,2.851.706,4.51.149,7.047.881-1.075.593-.735,2.547-3.964,2.349-1.144-.07-3.403-1.604-4.111-1.762-1.494-.332-7.5.249-6.607-2.055Z"/>
        <path class="ab" d="M82.975,60.193c2.242-1.333,3.327-4.266,5.285-5.579.158-.106.416-.199.587-.294.638,1.247-.397,2.515-1.174,3.523-1.366,1.771-2.909,2.307-4.698,3.23v-.881Z"/>
        <path class="bb" d="M77.983,61.955c1.637-.681,3.44-.839,4.992-1.762v.881c-1.608.83-4.917,1.346-5.579,2.936-3.005-1.769-2.681,2.655-4.404,2.055,2.638-2.704.397-2.199,4.992-4.111Z"/>
        <path class="ai" d="M43.629,296.854c.445.143,2.008.141,2.349.294.771.345,8.158,6.542,8.221,7.194.08.827-.863,1.413-.881,1.762-.158,3.106.867,5.492.881,8.515l1.321,1.028-.147-2.789,2.055.44c.174.36,1.074.706,1.468,1.468,1.444,2.792-.654,1.701-.587,2.789.022.361,2.69,2.092,2.496,3.083-3.721.177-4.657-1.546-6.607-4.111-.034-1.626-.9-2.102-2.349-2.789-.23-1.282,1.069-.258,1.174-1.174.181-1.57-6.945-7.611-1.615.44-1.202-1.289-2.595-2.411-3.67-3.817-.305-.398-2.043-2.617-2.055-2.789-.081-1.145,1.646-1.128.881-2.936-.902-2.131-3.532-1.807-5.285-2.202.167-1.104-.518-1.91-1.174-2.643.801-.49,3.415-.619,3.523-1.762Z"/>
        <path class="s" d="M40.399,300.965c.475.081.6.23.881.294,1.753.396,4.383.071,5.285,2.202.766,1.808-.962,1.791-.881,2.936.012.173,1.751,2.391,2.055,2.789-1.225-.635-5.204-3.979-5.872-4.845-.112-.146-.79-2.855-1.468-3.377Z"/>
        <path class="l" d="M34.527,295.092c.194-.154.461-.361.587-.587.184-.026.473.049.587,0,.63,2.015,3.215,2.782,4.404,4.111.656.733,1.341,1.539,1.174,2.643-.281-.063-.405-.212-.881-.294-1.898-.325-3.929-.894-5.872-.881,1.615-2.261.996-2.686,0-4.992Z"/>
        <path class="s" d="M32.765,295.679c.263-.145,1.614-.471,1.762-.587.996,2.306,1.615,2.731,0,4.992-.728.005-1.843,1.13-2.349,0,1.66-1.928.832-2.041.587-4.404Z"/>
        <path class="ai" d="M13.092,269.84c.285,3.044,2.491,2.36,4.404,3.23-.857,3.728-3.284,9.66-1.762,13.213-1.366-.44-2.37-3.078-1.762-4.404.147.353-.284,1.783.881,1.321,1.154-4.274-2.912-5.118-4.111-7.341-.763-1.416.832-3.696-2.349-2.789.601-1.213,3.304-3.449,4.698-3.23Z"/>
        <path class="aj" d="M10.156,239.597c2.946,1.109,1.173,5.375-.44,7.047.021-.757-.412-2.083-.44-2.643-.103-2.033.5-2.736.881-4.404Z"/>
        <path class="al" d="M13.679,256.04c.457.459,2.159,1.297,2.643,1.762-.116,1.861-.661,3.046-1.174,4.698-.848-1.883-1.732-4.414-1.468-6.46Z"/>
        <path class="p" d="M60.953,335.612c.218-.84,2.34-4.676,2.936-5.579.348-.527.907-.85,1.174-1.174.645.805,1.361,1.589,2.055,2.349-1.929,1.301-4.609,3.402-5.285,5.726-.622,2.138-.09,5.541-.294,7.634-.038.396-.34,1.674-1.174,1.321-1.401-3.224-.174-1.544,0-3.377.201-2.126.083-4.952.587-6.9Z"/>
        <path class="at" d="M154.913,81.334l2.936.881c-.092.069-1.286,1.914-1.028,2.055l5.138-.587c2.815,3.085.538,7.564,3.377,10.277.873.834,1.162-.713,1.909,1.762-.985-.444-1.159,1.874-1.174,2.202-.095,2.064.324,5.376.587,7.487-.315,1.02-1.114,2.837-1.174,3.817l-3.23-.44c.833-5.795,2.252-11.494.587-17.324-.097-.339-2.024-4.647-2.202-4.845-.928-1.03-6.475-2.523-6.607-3.083-.027-.115.857-1.813.881-2.202Z"/>
        <path class="be" d="M151.976,61.955c-.611,2.487,1.725,7.609,3.67,3.817l1.909,1.468c-.12.202-1.244,4.327-1.174,4.551.055.178,1.045.667,1.468,1.321,1.818,2.811-3.965.97-5.579.587-.596-.141-3.313-.381-3.523-.734-.537-1.54,4.295-4.096,4.404-4.404.199-.561-2.796-4.019-3.23-4.698,2.204-.362.353-.308.587-.881.039-.096.605-.011,1.468-1.028Z"/>
        <path class="q" d="M167.245,95.721c.458,1.518.241,4.138.587,5.726.814,3.734,3.236,7.324.734,11.305l-.734-1.174c.002-2.791-.977-4.583-1.174-6.166-.263-2.112-.683-5.423-.587-7.487.015-.328.189-2.647,1.174-2.202Z"/>
        <path class="at" d="M165.483,109.228c.061-.98.859-2.797,1.174-3.817.197,1.583,1.177,3.375,1.174,6.166-.002,2.046,1.024,3.34-1.468,4.698-.183-1.593-.949-5.949-.881-7.047Z"/>
        <path class="q" d="M157.849,82.215c1.236-.935,3.088.347,4.111,1.468l-5.138.587c-.258-.142.936-1.986,1.028-2.055Z"/>
        <path class="ai" d="M61.834,348.532l2.936-2.055c-.112,1.58-.254,3.105-.294,4.698-.024.957-.046,1.996,0,2.936.002.039-.516.136-.294.734.384.421.342-.44,1.174.44-1.097,2.062-.313,3.768-2.055,5.579-2.186.265-3.098-.691-4.698-2.055.693-.378,1.239-.239,1.321-.294,1.222-.808,2.193-8.49,1.909-9.983Z"/>
        <path class="ai" d="M64.476,354.11l3.23-3.523c.04,1.059,2.533,3.169,2.643,3.67.349,1.596-.763,3.425-1.174,4.845-1.171-1.388-2.557-2.485-3.817-3.817-.833-.881-.791-.019-1.174-.44-.222-.598.296-.695.294-.734Z"/>
        <path class="ai" d="M58.604,358.808c1.6,1.365,2.512,2.32,4.698,2.055-2.33,2.422-3.899.452-6.166-1.028.382-1.22,1.024-.785,1.468-1.028Z"/>
        <path class="bf" d="M22.782,221.392c.054.024.576-.321,1.174,0,.985.528,2.28,1.564,1.762,2.789-.144.34-4.367,4.796-4.992,5.432-.569.58-.644,1.067-1.468,1.762-.782.66-1.982.98-2.643,1.468.581-2.554,3.178-3.416,4.404-5.726.138-.26-.519-.694-.294-1.174.67-1.43,2.057-2.607,2.055-4.551Z"/>
        <path class="ag" d="M35.995,196.434c.5.109,1.329-.133,1.762,0,1.243.382,3.213.896,3.523,2.349-.33.119-2.18.59-2.349.587-1.61-.021-3.995-.852-6.46-.881.691-1.315,2.226-1.598,3.523-2.055Z"/>
        <path class="ak" d="M20.433,134.773c.23-2.036,2.587-4.89,2.643-5.432.098-.949-1.776-3.249-2.349-4.258,1.393-.44-.486-2.582,2.349-1.468,1.424,2.568,3.748,3.344,6.313,4.111.501.15.393.869.44.881-.498.077-.265.793-.294,1.174-.204,2.739,1.699,3.154,2.349,4.845.397,1.032.106,2.12.294,2.936.646,2.815,2.812,3.268-2.202,3.083l-7.194-2.936c-.657-.601-1.447-1.098-2.055-1.762.004-.556-.35-.678-.294-1.174Z"/>
        <path class="aw" d="M29.535,129.782c1.464,1.401,2.54,3.243,3.817,4.845.137.172-.201,1.022.147,1.321.134.115,1.024-.116,1.174,0,.406.315,2.119,1.723,2.349,1.762.81.136,1.062-.593,1.174-.587,3.643.174,6.971-.19,7.928,4.404-1.058-.548-2.247-.836-3.377-1.174-.538-.161-1.844.07-1.909,0-.414-.446.695-1.145-.294-1.174-.15-.004-2.706.516-2.936.587-.946.292-2.412,1.339-3.377,1.762-5.459-1.459-6.389.815-11.451-3.817l7.194,2.936c5.015.185,2.849-.268,2.202-3.083-.187-.817.103-1.904-.294-2.936-.65-1.69-2.553-2.105-2.349-4.845Z"/>
        <path class="aw" d="M23.075,122.735c1.398-1.852,2.577-1.099,4.111-1.468.395,1.605,3.075,2.243,4.111,3.23.164.156,2.79,3.499,2.643,3.67-1.223.019-2.971.712-4.111.44-.048-.011.061-.731-.44-.881-2.565-.767-4.889-1.543-6.313-4.111-.475-.856.016-.84,0-.881Z"/>
        <path class="as" d="M22.782,114.22c2.455-2.159,3.308,2.217,5.285,2.055-.085,1.531-.543,3.123-.294,4.698-.262.073-.328.231-.587.294-1.534.369-2.713-.384-4.111,1.468-.253-.632-1.747-4.587-1.762-4.845-.048-.833,1.33-2.691,1.468-3.67Z"/>
        <path class="ar" d="M22.488,113.045c.735-1.045,2.863-1.192,3.377-1.468,1.594-.856-.322-1.878,3.67-1.468-1.842,2.335-1.311,3.346-1.468,6.166-1.977.161-2.83-4.214-5.285-2.055.012-.083-.607.643-.294-1.174Z"/>
        <path class="ax" d="M17.497,288.339l7.341-10.57c.084.032.204-.028.294,0,1.137.357,3.771.023,4.992.294.186,2.303,2.247.767,3.23,2.496-3.48.447-5.848,2.883-8.662,4.258-.121.059-1.001-.601-2.055,0-2.112,1.203-2.186,4.886-.734,6.753-.191,1.295-1.987.793-2.936.881-.531-1.423-1.4-2.228-1.468-4.111Z"/>
        <path class="p" d="M17.497,273.07c1.936.88,2.657,1.362,4.404,2.349.47.265.65.449.881.587-1.058,1.873-2.655,2.703-3.523,4.845-.502,1.238-1.74,5.951-1.762,7.194-.923-.054-1.452-1.04-1.762-1.762-1.523-3.553.905-9.485,1.762-13.213Z"/>
        <path class="af" d="M22.782,276.007c.697.418,1.49,1.547,2.055,1.762l-7.341,10.57c-.004-.097-.002-.196,0-.294.022-1.243,1.259-5.956,1.762-7.194.869-2.142,2.465-2.972,3.523-4.845Z"/>
        <path class="ai" d="M30.122,278.062c.407.09.765.214,1.174.294,3.832.748,4.463,1.335,8.809,1.468-1.427,2.883-4.586,5.822-4.698,9.102-.335.21-1.896,1.533-2.055,1.762-2.716,1.8-.114-3.861-3.817-1.762-3.769-2.14-4.448,2.003-5.872,4.404-.288-.81-1.558-1.5-1.762-1.762-1.452-1.868-1.377-5.55.734-6.753,1.055-.601,1.934.059,2.055,0,2.814-1.375,5.181-3.811,8.662-4.258-.983-1.728-3.044-.193-3.23-2.496Z"/>
        <path class="ai" d="M25.131,298.616c1.049-2.613,7.563-7.896,4.404-9.69,3.703-2.1,1.101,3.562,3.817,1.762-.354.507-2.351,4.815-1.468,5.285-2.324,1.292-4.63,2.724-7.047,3.817.081-.331.178-.887.294-1.174Z"/>
        <path class="ah" d="M100.592,194.085l2.202-1.174.44,3.523c-.612,1.322-1.758,3.968.294,1.909l-.294,8.515,2.643-2.055c-.954,1.491-.562,6.531,0,8.221.759,2.28,4.259,4.229,3.523,7.781-1.081.425-2.388.225-2.349,1.762-1.247.032-3.347.961-5.138.587-1.302-.272-4.518-2.975-7.781-3.817-.525-.136-1.933-.84-2.349-.881,7.849-2.706,3.641-8.399,4.404-13.36.05-.322,2.301-5.129,2.643-5.872,1.036-2.257,2.8-1.418,1.762-5.138Z"/>
        <path class="av" d="M44.51,132.718c.333.626,3.112,3.369,3.67,3.523,1.678.466,2.35-1.307,2.789,0-1.489.347-.032.528,0,.587,1.167,2.172,8.467,7.769,8.515,8.368.081,1.008-2.205,1.808-3.23,1.615-.308-1.25-4.081-3.185-5.285-3.523-1.221-3.673-3.95-6.293-6.753-8.809l.294-1.762Z"/>
        <path class="ab" d="M31.884,119.799c.124-.109,1.732-2.627,1.762-2.789.078-.424-1.04-1.521-.44-1.909,3.536,2.382,4.351-3.791,8.662-3.23-1.78,1.154-6.442,5.836-6.753,7.781-.018.115.622,2.17.734,2.202,1.433.409,4.692-2.779,6.019-.587-3.209.751-1.747,2.955-5.872,3.23-.888.059-3.108-.125-3.817-.587-2.861-1.863,3.033-2.29-.294-4.111Z"/>
        <path class="ab" d="M35.995,124.497c4.126-.275,2.664-2.479,5.872-3.23,1.433,2.367,1.101,8.55,2.643,11.451l-.294,1.762c-.917-.823-1.977-2.196-3.23-1.762-.762-1.755-.56-3.166-.881-3.964-.285-.709-4.534-2.304-4.111-4.258Z"/>
        <path class="ab" d="M104.409,52.265c.443.418,3.993,3.192,4.258,3.23.955.135,2.458-1.082,3.23-1.174.462-.055,1.334.891,2.496.587.703,4.667-7.68,6.283-9.396,1.909-.472-1.204-.333-3.214-.587-4.551Z"/>
        <path class="ab" d="M88.847,54.32c.462-.255.98-.377,1.468-.587,1.779-.767,4.68-.629,6.019-2.349,1.009.186-.651.448.294,1.174.068.052,1.491.585,1.615.587-.993,2.073-4.177,1.575-5.726,2.349-1.128.564-3.409,4.768-4.845,2.349.778-1.008,1.813-2.276,1.174-3.523Z"/>
        <path class="ab" d="M99.124,48.448l3.23,2.789c-1.183.348-2.934,1.931-4.111,1.909-.124-.002-1.547-.535-1.615-.587-.945-.726.715-.989-.294-1.174-1.339,1.72-4.24,1.582-6.019,2.349-.104-.645.565-.946,1.028-1.174,1.762-.869,6.566-3.917,7.781-4.111Z"/>
        <path class="bf" d="M43.335,188.507c-.578-.207-2.562-1.228-2.936-1.762-.767-1.096-.379-2.851-1.468-3.817,4.77-.484,2.401.457,4.111,2.202,1.989,2.03,8.191,6.205.294,3.377Z"/>
        <path class="x" d="M19.258,231.376c.824-.695.899-1.181,1.468-1.762l3.23.734c-.52.37-.295,2.629-.587,2.936-.226.237-3.528.256-4.258,1.028-.754-1.125.3-1.691.147-2.936Z"/>
        <path class="ag" d="M43.042,193.792c-.071,3.125,1.855,3.687-1.762,4.992-.311-1.453-2.28-1.967-3.523-2.349l5.285-2.643Z"/>
        <path class="ay" d="M102.648,181.46c.194-.01.393.004.587,0-.038.086.274,1.975-.587,0Z"/>
        <g>
          <path class="av" d="M9.862,250.168c.503.227.77.698,1.174-.147.344-.72,2.405-8.592,2.349-9.102-.028-.252-1.148-1.808-1.174-2.055-.38-3.594,2.053-4.28,4.404-6.019.66-.488,1.86-.808,2.643-1.468.153,1.246-.901,1.812-.147,2.936.73-.772,4.031-.79,4.258-1.028.292-.307.068-2.566.587-2.936l-3.23-.734c.624-.636,4.848-5.092,4.992-5.432.518-1.226-.777-2.262-1.762-2.789.608-2.547-1.028-2.015-1.321-2.349-1.693-1.924,3.839-7.857,3.67-8.956-.04-.258-1.336-1.158-1.468-1.762-.261-1.189.853-2.998.294-4.698-.405-1.231-2.244-1.692-1.762-3.23,2.389-.033,4.822-.333,7.194-.44.576-.026,2.915.619,3.523.587.073-.004.887-.854,1.174-.881.778-.073,2.853.73,3.67-.294.169.002,2.019-.468,2.349-.587,3.617-1.304,1.691-1.866,1.762-4.992.039-1.732.493-3.519.294-5.285,7.897,2.829,1.695-1.346-.294-3.377-1.71-1.745.659-2.687-4.111-2.202-.487.049-1.438.54-2.055.587-.362-.552-1.153-2.423-1.174-2.936,2.852-1.986,6.012-4.99,5.432-8.515-.651,1.529-3.609,3.366-4.258,4.404-.068-1.798,1.698-5.159,2.643-6.9.136-.251.731.563,1.174-.294.343-.662.693-1.804,1.174-2.789,2.396-.075,5.863,1.408,5.285-2.496-.261-1.763-2.505-1.366,0-4.258.775.162,1.945-.115,2.789,0l.734-.734-1.762-2.496c3.846.944.52-1.993.587-2.202.096-.296.791.001.881-.294.459-1.503.183-3.236,2.496-3.083.582.038,2.017,1.176,2.496.734.181-.167.94-4.606.881-4.845,1.025.193,3.311-.607,3.23-1.615-.048-.599-7.348-6.197-8.515-8.368-.024-.187.046-.45,0-.587-.439-1.307-1.111.466-2.789,0-.558-.155-3.338-2.897-3.67-3.523-1.542-2.901-1.21-9.085-2.643-11.451-1.327-2.192-4.587.996-6.019.587-.112-.032-.752-2.088-.734-2.202.312-1.945,4.973-6.627,6.753-7.781.378.049.791-.032,1.174,0,1.67,1.151,3.499.401,5.579.44-4.381,4.543-1.317,7.5-.44,12.773,2.925-5.778,3.739-11.936,10.13-15.122l-.881-.44c.778-.32,2.141-1.278,2.936-1.762,2.555-1.554,4.243-2.978,6.166-5.285,3.171-3.806,4.559-7.212,4.992-12.185.151-1.734-.752-5.483-.294-7.047.385-1.313,3.822-3.662,4.698-4.992,3.342-5.071-.256-10.1,1.468-14.241.662-1.59,3.971-2.107,5.579-2.936,1.789-.923,3.332-1.459,4.698-3.23,1.435,2.419,3.717-1.785,4.845-2.349,1.549-.774,4.733-.276,5.726-2.349,1.176.022,2.927-1.56,4.111-1.909l-3.23-2.789c.094-.015.197.009.294,0,1.298-.115,3.429-.051,4.404.881.047.045.229.922.587,1.174-.368.065-1.2.403-1.468.734l1.028.147c.458.165.405.847.44.881.254,1.337.115,3.348.587,4.551,1.716,4.374,10.099,2.759,9.396-1.909.043-.011-.121-.837.147-.881.894-.147,2.811.625,3.964.587.626-.021,2.839-.32,3.23-.734.24-.254,1.671-5.27,1.909-5.432.315-.214,6.444,1.858,7.341,2.055,1.334,2.208,4.861,2.29,6.019,4.551.78,1.523.381,3.991,1.028,4.551.451.391,2.244.434,2.936.881,2.032,1.311,3.159,3.612,5.432,4.258.082.805-.098,1.584-.294,2.349-.454,1.772-3.451,5.163-2.055,7.047.378.511,6.926-.262,8.221.147,2.337.495-.533,2.161.294,3.964.449.979,2.59-.795,2.349,3.083-.024.389-.908,2.087-.881,2.202.132.56,5.679,2.053,6.607,3.083.178.198,2.105,4.506,2.202,4.845,1.665,5.83.246,11.528-.587,17.324l3.23.44c-.068,1.098.698,5.454.881,7.047.022.19-.022.397,0,.587-.792,2.986-4.268,3.195-6.46,4.404-2.537-.732-4.196-.175-7.047-.881-.456-.113-.597-.656-.587.294-2.27-.221-4.864-.808-7.047-.881-5.78-.193-12.285.118-14.975,6.019-2.999,6.58-.582,13.542,4.111,18.939,2.269,3.581,1.551.886,3.67,1.468.24.066,3.309,3.363,3.377,3.67.072.33-.207,6.295-.294,6.753-.158.831-1.118.73-1.174.881-.264.702.376,1.468.294,2.055-.066.469-1.812,1.193.294,1.909-3.616,5.073-10.078,4.752-15.562,4.992-.934.041-2.392-.531-3.67-.294-1.82.338-4.949,3.354-5.138,5.285-.262.164-.466.339-.881.587-1.014-.827-2.334.596-3.083.587-.799-.01-4.018-2.161-4.404-2.055-1.826.501-3.713,8.98-4.551,10.864-.194.004-.394-.01-.587,0-.261.013-2.709,3.213-3.817,3.083.311,1.655,6.496,8.37,6.46,9.102-.009.173-1.643,1.9-2.055,2.789l-.44-3.523-2.202,1.174c-.819-2.934-5.657-4.852-6.166-6.9-.069-.278-.256-4.966-.294-5.726-.1-2.031.155-4.004.294-6.019-1.261.548-1.387,1.957-3.23,1.615-.016-3.618.581-5.363-2.789-7.928-1.312.836.082,2.665-.587,4.111l-5.872-5.872-.587,3.23-6.166-4.404-1.615,9.543c-2.146-.3-2.24-.943-2.643-2.496-.06-.232.49-.345,0-.881l-3.377-2.643-2.055-.587c-1.023.182-.784,4.472-1.028,5.138-.678,1.855-3.606,6.065-4.698,8.515-1.038,2.328-1.4,5.291-2.643,7.634-.062.117-.903.065-1.468,1.174-.094.184.354,1.424.294,1.468-1.396,1.019-3.78-1.875-4.404-.881,2.291,5.553,6.428,2.802,5.872,9.983-.091,1.172-1.437,4.162-1.468,4.698-.114,1.948,2.079,1.481.881,3.523-.994,1.694-4.101,2.866-6.019,2.496-.842-.595.785-5.279.734-5.726-.114-1.005-4.346-4.023-5.579-3.817,2.93,2.789-1.248,5.835-1.468,9.102l4.111.587c-2.279-.219-1.225,4.647-1.909,5.138-.171.123-3.133-1.375-3.964.147-.084,4.828-2.43,9.518-2.055,14.388.038.487.742,1.538.881,2.496-.832-.087-.644.334,0,.587-.353,2.476-1.738,2.294-2.055,3.377-.435,1.482.635,2.704.587,3.23-.22,2.4-3.184,15.189-6.607,8.662-3.072,2.003-7.922,1.446-11.598,1.909.856,4.901,3.351,5.925,6.166,9.396-1.663,1.833-6.352-1.279-7.194-1.028-2.985.89,4.577,7.847,0,7.047l.147.881c-2.237-.268-3.819,1.475-4.698-1.909-.323-1.242-.127-2.83,0-4.111.258-2.605,2.104-3.41,0-5.432-.484-.465-2.186-1.303-2.643-1.762-2.004-2.011-2.947-3.137-3.817-5.872Z"/>
          <g>
            <path class="av" d="M36.876,176.468c.649-1.038,3.607-2.876,4.258-4.404.58,3.525-2.58,6.529-5.432,8.515-.035-.816.759-3.446,1.174-4.111Z"/>
            <path class="ay" d="M128.486,81.481c1.563-.983,2.213-.514,2.202-2.789.746,1.551.794,2.309,2.789,2.496-1.909.33-1.924,1.244-2.496,2.789-.188-1.663-.809-2.307-2.496-2.496Z"/>
            <path class="ay" d="M77.983,139.912c.031-.146,1.966-.598,1.615-2.202.842,1.416,1.191,1.675,2.789,2.202-1.867.175-1.808.747-2.496,2.202.318-1.336-1.941-2.05-1.909-2.202Z"/>
            <path class="ay" d="M98.83,153.712c.039-.99.804.033,1.028-.147.441-.354.779-1.443.881-1.468.113-.028,1.871,1.211,1.909,1.321.022.065-.596.506-.587.587.062.552.601.828.587.881-.073.272-1.865-.817-2.202,1.028-.178-1.238-.16-1.958-1.615-2.202Z"/>
            <path class="az" d="M61.54,131.544c1.004.153,3.997.139,3.23,1.468-.722-.286-2.091.583-2.349,1.174l-.881-2.643Z"/>
            <path class="v" d="M62.421,134.186c.258-.592,1.627-1.46,2.349-1.174l2.055.147c-1.834.547-3.845.803-3.964,3.083-.31-.682-.799-1.233-.44-2.055Z"/>
            <path class="ay" d="M145.81,96.455c.014-.119,1.009-.957,1.028-1.909.26,1.164.735,1.715,1.909,1.321l-1.028,1.909c-.456.047-1.925-1.182-1.909-1.321Z"/>
            <path class="ay" d="M107.933,152.244c-.049-.092,1.511-1.324,1.615-1.321.108.003.919,1.308,1.909,1.028-.785,1.084-2.954,1.359-3.523.294Z"/>
            <path class="ay" d="M35.701,233.578l1.615-1.615c1.796,2.25.762,3.283-1.615,1.615Z"/>
            <path class="ay" d="M98.243,149.601c.005-.396,1.441-1.23,1.762-.294.396,1.159-1.774,1.217-1.762.294Z"/>
            <path class="ay" d="M29.535,232.11c-.158-.982,1.989-1.004,2.055-.294.041.435-1.893,1.307-2.055.294Z"/>
            <path class="ay" d="M153.151,93.813c-.103-1.072,3.173-.897.734.734-.133-.206-.723-.617-.734-.734Z"/>
            <path class="ay" d="M33.94,223.007c-.542-1.61,1.302-1.378,1.174-.294-.049.42-.95.962-1.174.294Z"/>
            <path class="ay" d="M144.342,94.694c-.213-.931,1.554-.628,1.468,0-.072.53-1.327.615-1.468,0Z"/>
            <path class="ay" d="M95.601,67.387c-.028-.582,1.077-1.049,1.174-.294.03.232-1.136,1.095-1.174.294Z"/>
            <path class="ay" d="M110.282,61.221c.039-.801,1.205.061,1.174.294-.098.756-1.203.288-1.174-.294Z"/>
            <path class="ay" d="M71.523,133.158c-.115-.692.785-.869.881-.294.115.692-.785.869-.881.294Z"/>
            <path class="ay" d="M157.262,96.749c.036-.65.735-.573.881-.294.298.569-.914.899-.881.294Z"/>
            <path class="ay" d="M95.894,107.026c-.005-.149.695-.714.881-.294.429.972-.865.795-.881.294Z"/>
            <path class="ay" d="M96.775,94.106c-.005-.149.695-.714.881-.294.429.972-.865.795-.881.294Z"/>
            <path class="ay" d="M116.154,88.234c-.298-.569.914-.899.881-.294-.036.65-.735.573-.881.294Z"/>
            <path class="ay" d="M84.149,94.106c-.005-.149.695-.714.881-.294.429.972-.865.795-.881.294Z"/>
            <path class="ay" d="M85.617,136.095c-.429-.972.865-.795.881-.294.005.149-.695.714-.881.294Z"/>
            <path class="ay" d="M85.617,92.345c-.298-.569.914-.899.881-.294-.036.65-.735.573-.881.294Z"/>
            <path class="ao" d="M136.708,76.489c.036-.65.735-.573.881-.294.298.569-.914.899-.881.294Z"/>
            <path class="ao" d="M90.609,67.093c.036-.65.735-.573.881-.294.298.569-.914.899-.881.294Z"/>
            <path class="ay" d="M109.107,77.957c.036-.65.735-.573.881-.294.298.569-.914.899-.881.294Z"/>
            <path class="ay" d="M111.75,97.043c-.429-.972.865-.795.881-.294.005.149-.695.714-.881.294Z"/>
            <path class="ay" d="M110.575,88.528c-.429-.972.865-.795.881-.294.005.149-.695.714-.881.294Z"/>
            <path class="ay" d="M67.119,165.751c.036-.65.735-.573.881-.294.298.569-.914.899-.881.294Z"/>
            <path class="ay" d="M111.163,167.219c-.429-.972.865-.795.881-.294.005.149-.695.714-.881.294Z"/>
            <path class="ay" d="M98.243,78.251c-.049-.56,1.159-.333.881.294-.18.408-.865-.111-.881-.294Z"/>
            <path class="v" d="M61.54,131.544c-.501.378-.798.247-.881-.44.484-.569.832.433.881.44Z"/>
            <path class="ay" d="M75.928,119.358c.078-.998,1.253-.031.587.294-.322.157-.591-.252-.587-.294Z"/>
            <path class="ao" d="M117.916,78.838c.016-.182.7-.701.881-.294.278.627-.93.853-.881.294Z"/>
            <path class="ay" d="M144.342,99.098c-.225-.506.735-.621.881-.294.225.506-.735.621-.881.294Z"/>
            <path class="ay" d="M70.643,155.18c-.278-.627.93-.853.881-.294-.016.182-.7.701-.881.294Z"/>
            <path class="ay" d="M123.201,137.856c-.225-.506.735-.621.881-.294.225.506-.735.621-.881.294Z"/>
            <path class="ay" d="M88.554,112.311c-.225-.506.735-.621.881-.294.225.506-.735.621-.881.294Z"/>
            <path class="ay" d="M71.523,122.294c-.225-.506.735-.621.881-.294.225.506-.735.621-.881.294Z"/>
            <path class="ay" d="M34.233,231.229c-.049-.56,1.159-.333.881.294-.18.408-.865-.111-.881-.294Z"/>
            <path class="ay" d="M55.961,187.185c.084-.694,1.316-.184.587.294-.295.193-.591-.261-.587-.294Z"/>
            <path class="ao" d="M101.179,98.217c-.07-.103-.046-.646.147-.734.487-.222.494,1.678-.147.734Z"/>
            <path class="ay" d="M97.656,62.395c.084-.694,1.316-.184.587.294-.295.193-.591-.261-.587-.294Z"/>
            <path class="ay" d="M91.783,120.826c.084-.694,1.316-.184.587.294-.295.193-.591-.261-.587-.294Z"/>
            <path class="ay" d="M103.822,143.142c.084-.694,1.316-.184.587.294-.295.193-.591-.261-.587-.294Z"/>
            <path class="ay" d="M104.703,95.575c.084-.694,1.316-.184.587.294-.295.193-.591-.261-.587-.294Z"/>
            <path class="ay" d="M107.639,89.702c.084-.694,1.316-.184.587.294-.295.193-.591-.261-.587-.294Z"/>
            <path class="ay" d="M30.71,248.259c.084-.694,1.316-.184.587.294-.295.193-.591-.261-.587-.294Z"/>
            <path class="ay" d="M27.773,236.808c.084-.694,1.316-.184.587.294-.295.193-.591-.261-.587-.294Z"/>
            <path class="ay" d="M24.544,246.791c-.07-.103-.046-.646.147-.734.487-.222.494,1.678-.147.734Z"/>
            <path class="ay" d="M133.478,100.273c.084-.694,1.316-.184.587.294-.295.193-.591-.261-.587-.294Z"/>
            <path class="ay" d="M127.899,98.511c.084-.694,1.316-.184.587.294-.295.193-.591-.261-.587-.294Z"/>
            <path class="ay" d="M137.295,62.101c.084-.694,1.316-.184.587.294-.295.193-.591-.261-.587-.294Z"/>
            <path class="ay" d="M87.379,101.741c.084-.694,1.316-.184.587.294-.295.193-.591-.261-.587-.294Z"/>
            <path class="ay" d="M77.396,163.695c.084-.694,1.316-.184.587.294-.295.193-.591-.261-.587-.294Z"/>
            <path class="ay" d="M84.736,129.048c.084-.694,1.316-.184.587.294-.295.193-.591-.261-.587-.294Z"/>
            <path class="ay" d="M148.453,102.622c.084-.694,1.316-.184.587.294-.295.193-.591-.261-.587-.294Z"/>
            <path class="ay" d="M81.8,162.521c.084-.694,1.316-.184.587.294-.295.193-.591-.261-.587-.294Z"/>
            <path class="ay" d="M152.857,120.386c-.068,1.181-.531.299-.587.294-.01-.95.132-.406.587-.294Z"/>
            <path class="ay" d="M78.864,122.882c.084-.694,1.316-.184.587.294-.295.193-.591-.261-.587-.294Z"/>
            <path class="ay" d="M114.099,121.12c.084-.694,1.316-.184.587.294-.295.193-.591-.261-.587-.294Z"/>
            <path class="ay" d="M114.099,131.984c.084-.694,1.316-.184.587.294-.295.193-.591-.261-.587-.294Z"/>
            <path class="ay" d="M14.854,246.497c.084-.694,1.316-.184.587.294-.295.193-.591-.261-.587-.294Z"/>
            <path class="ay" d="M129.955,151.07c.084-.694,1.316-.184.587.294-.295.193-.591-.261-.587-.294Z"/>
            <path class="ay" d="M50.97,136.242c.046.137-.024.4,0,.587-.032-.059-1.489-.241,0-.587Z"/>
            <path class="ao" d="M127.018,67.974c-.161-.446.433-.646.587-.294.189.43-.459.647-.587.294Z"/>
            <path class="ao" d="M110.575,67.387c-.161-.446.433-.646.587-.294.189.43-.459.647-.587.294Z"/>
            <path class="ay" d="M87.966,84.123c-.161-.446.433-.646.587-.294.189.43-.459.647-.587.294Z"/>
            <path class="ay" d="M96.188,126.992c-.161-.446.433-.646.587-.294.189.43-.459.647-.587.294Z"/>
            <polygon class="aj" points="80.919 141.967 81.213 141.674 81.507 141.674 81.507 141.967 80.919 141.967"/>
          </g>
        </g>
        <path class="r" d="M79.158,290.1c.565-1.144.941-2.66.587-3.817,1.134.118,2.624.848,3.523-.294.782.163,2.035-.177,2.789,0,1.387.326,1.832,1.761,3.523,2.055,4.493.783,8.705-5.8,13.36-1.468.248.306.264.845.294.881l-2.936-.147c-.122,2.976-.099,5.268.881,8.075-2.217-.41-3.353-1.86-5.285.147-.13.135.199,1.052-.147,1.321-.702.547-3.094-2.205-4.111-2.349-1.229-.174-1.728.658-2.055.587-.245-.053-1.477-2.424-2.643-2.936-.671-.295-4.324-.182-5.579-.587-1.37-.442-2.075-1.404-2.202-1.468Z"/>
        <path class="aa" d="M73.579,278.062c.985,5.548-.158,7.564,6.166,8.221.353,1.157-.022,2.673-.587,3.817-1.754-.887-1.288.266-2.202.294-2.998.091-7.455-.592-8.368-3.964-.769-2.839.925-2.029,1.762-3.523.964-1.72.706-3.603,3.23-4.845Z"/>
        <path class="o" d="M65.357,290.394c-1.53,1.794,1,4.122,1.174,4.845.071.295-.583,2.785,0,3.67-.791-.646-1.646-1.398-2.055-2.349-.51-1.184-1.848-8.05-.734-8.515.775.534,1.141,1.697,1.615,2.349Z"/>
        <path class="ah" d="M82.681,229.027c2.098-3.768,1.231-6.616,4.111-9.69,2.063-.609,2.416-1.132,4.992-.881.416.041,1.824.745,2.349.881-.278,1.434-.534,2.941-.587,4.404-6.331.267-6.186,5.701-8.809,8.956-.435.54-.996-.188-1.028-.147-.999,1.281-2.348,3.362-2.202,4.992-1.071.095-1.778.37-2.789.587-.946-.767.92-2.963,1.028-3.377.033-.128-.346-2.007,0-2.643.41-.752,2.102-.81,2.643-1.468.357-.435.211-1.466.294-1.615Z"/>
        <path class="u" d="M93.545,223.741c-.121,3.334,1.111,3.602-3.23,5.138-.172.41,1.804,3.651,2.936,3.083-2.241,2.8-3.241,4.824-7.047,5.285-1.504.182-3.149.156-4.698.294-.146-1.629,1.203-3.711,2.202-4.992.032-.041.593.686,1.028.147,2.622-3.254,2.477-8.688,8.809-8.956Z"/>
        <path class="aa" d="M82.681,255.746c-.176,2.189,6.003,7.307,6.166,7.781.201.583-.272,3.125-1.028,3.377-1.832.61-4.29-4.171-5.432-5.579-1.727-2.127-1.97-3.65-4.992-4.992.16-.817-.173-.743-.587-1.174,2.288.677,3.474,1.003,5.872.587Z"/>
        <path class="p" d="M64.476,351.174c1.761-2.045,2.158-5.03,3.23-7.341.284-.612.662-1.839,1.468-1.909.214,3.188-.034,5.803-1.468,8.662l-3.23,3.523c-.046-.941-.024-1.979,0-2.936Z"/>
        <path class="af" d="M64.77,346.476c.09-1.278.442-2.565.587-3.817.845-.076,1.093.987,1.762,1.174.152.043.398-.021.587,0-1.071,2.311-1.469,5.296-3.23,7.341.04-1.593.182-3.118.294-4.698Z"/>
        <g>
          <path class="x" d="M67.119,338.255c6.327-1.63,6.499,2.059,6.46,7.047l-.294.881c.099,6.74.822,4.78,2.349,9.836.082.271.918,4.741.881,4.992-.132.899-3.669,2.112-3.523,2.349.806.469,2.599-.486,2.643,1.028-1.16-.153-1.973.219-2.936.294-2.265.176-5.576,2.272-4.992-1.468.204-1.308,1.054-2.683,1.468-4.111.411-1.42,1.524-3.249,1.174-4.845-.11-.501-2.603-2.611-2.643-3.67,1.434-2.859,1.682-5.474,1.468-8.662-.806.07-1.184,1.296-1.468,1.909-.189-.021-.435.043-.587,0-.071-1.849.097-3.733,0-5.579Z"/>
          <path class="ao" d="M73.579,345.302c-.009,1.093-.294.834-.294.881l.294-.881Z"/>
          <path class="ay" d="M71.817,354.845c.084-.694,1.316-.184.587.294-.295.193-.591-.261-.587-.294Z"/>
          <path class="ay" d="M69.762,350.734c.084-.694,1.316-.184.587.294-.295.193-.591-.261-.587-.294Z"/>
        </g>
        <g>
          <path class="av" d="M80.332,370.553l1.468-4.404c.032.005.193.147.587.294,1.218.454.605.111,1.174-.294,1.407-.999,3.992-3.757,6.313-3.23.473.107,3.085,3.596,3.083,3.964-.012,1.907-4.097,1.401.587,4.551.881.371,1.014,2.407,0,1.762.526-1.665.039-.563-.294-.294-.259.21-1.167,1.145-1.321,1.174-.646.125-6.468-.958-7.634-1.174-.222.981-1.59.657-1.909,1.468-1.393-1.064-3.167-1.759-2.055-3.817Z"/>
          <path class="ay" d="M83.562,366.149c-.57.405.044.747-1.174.294.267-.708.598-.7,1.174-.294Z"/>
          <path class="ay" d="M93.545,373.196c-.066-.042-.343.043-.294-.294.333-.269.82-1.372.294.294Z"/>
          <path class="ay" d="M87.379,369.526c-.025-.704,1.174-.785,1.174-.294,0,.309-1.148,1.049-1.174.294Z"/>
        </g>
        <path class="ax" d="M40.106,279.824c.492.015.767-.308,1.468-.294,1.024.021,1.929.608,2.936.734-.871.922-1.427,5.32-1.762,5.872-.301.496-6.105,2.014-7.341,2.789.111-3.281,3.271-6.219,4.698-9.102Z"/>
        <path class="ah" d="M77.396,256.334c3.021,1.341,3.265,2.865,4.992,4.992-3.804-1.615-4.353,2.907-5.138,3.23-.754.31-2.455-1.048-3.377-.294-.198-.562-.558-.986-.881-1.468-1.361-2.032-5.4-6.038-7.781-6.46-.172-.03-3.221,1.47-1.321-1.321,1.359-1.997,11.412.391,13.507,1.321Z"/>
        <path class="p" d="M35.701,294.505c1.005-.429,4.55-1.706,5.432-1.468.646.175-.157,2.489.147,3.083.145.282,1.808.56,2.349.734-.109,1.143-2.722,1.272-3.523,1.762-1.19-1.329-3.775-2.095-4.404-4.111Z"/>
        <path class="r" d="M98.537,266.611c-.015.598.343,3.493.294,3.67-.032.114-1.093,1.969-1.174,2.055-.265.281-2.191-.088-2.643,2.055-.033.159.237,3.078.294,3.23.495,1.332,4.541,5.695,6.166,4.111-2.249.8.304,3.41,1.468,4.845-4.655-4.332-8.867,2.251-13.36,1.468-1.691-.295-2.137-1.73-3.523-2.055-.755-.177-2.007.163-2.789,0-2.071-.432-7.88-.415-7.341-3.67.153-.926,13-10.926,14.534-11.892,2.714-1.709,5.416-2.227,8.075-3.817Z"/>
        <g>
          <path class="m" d="M115.273,172.064c.415-.248.619-.423.881-.587.13-.081,1.877-.242,2.936-.881.483,1.404,1.422,2.632,1.174,4.258-.093.614-1.136,1.749-1.174,2.055-.142,1.136.615,1.13.587,2.055-.01.351-.937.309-.881.881.025.259,1.351,4.759,1.468,4.992,1.675,3.334,9.089,6.163,8.809,12.185l-9.69-7.194c-.554-4.258-1.146-5.853-3.817-9.102-3.467-4.218-7.516-4.341-.294-8.662Z"/>
          <path class="ay" d="M118.21,173.385c.539-.364,1.213-.115.587.294-.319.208-.354-.114-.587-.294Z"/>
        </g>
        <path class="bb" d="M29.829,128.607c1.14.272,2.888-.421,4.111-.44.147-.172-2.479-3.514-2.643-3.67l.881-.587c.709.462,2.929.646,3.817.587-.423,1.953,3.826,3.549,4.111,4.258.321.798.119,2.209.881,3.964,2.578,5.942,6.198,4.058,7.634,9.69-.539-.26-1.435-.357-1.909-.881-.452.545.197.911.147,1.468-.003.033-.456-.018-.294.587-1.903-.996-4.504-.15-3.817-3.23,1.13.338,2.319.626,3.377,1.174-.957-4.595-4.285-4.23-7.928-4.404-.113-.005-.365.723-1.174.587-.23-.039-1.943-1.447-2.349-1.762-.15-.116-1.04.115-1.174,0-.348-.3-.01-1.149-.147-1.321-1.277-1.602-2.353-3.444-3.817-4.845.028-.381-.204-1.098.294-1.174Z"/>
        <path class="an" d="M47.153,144.169c4.708,3.066-.684.731,0,3.964.327,1.545,2.166.464,2.055,2.055-.797,2.264-1.717,1.755-3.23,2.496-1.126-.108-1.055-1.982-1.468-2.496-.673-.838-3.891-2.267-3.817-2.936.088-.803,1.575.058,1.909-.147.447-.275-.436-1.365.294-1.468,1.674-.236,3.506,1.676,4.258-1.468Z"/>
        <path class="ap" d="M40.986,132.718c1.253-.434,2.313.939,3.23,1.762,2.803,2.516,5.532,5.136,6.753,8.809-.505-.142-.945-.22-1.468-.294-.359-.12-.533-.42-.881-.587-1.436-5.632-5.056-3.748-7.634-9.69Z"/>
        <path class="aw" d="M48.621,142.408c.348.168.522.468.881.587-.03-.004.09.596-.147.587-.513-.018-1.582-.734-2.496-.587.05-.557-.599-.923-.147-1.468.473.524,1.37.621,1.909.881Z"/>
        <g>
          <path class="as" d="M60.953,74.287c1.339-1.343,2.728-2.098,2.349-4.404-.038-.229-1.846-2.304-1.028-2.936,1.476.512,2.585.273,3.964.294,1.466.022,2.828.715,4.992,0,.762-.252,1.208-.607,1.762-1.174,1.724.6,1.4-3.824,4.404-2.055-1.724,4.14,1.874,9.169-1.468,14.241-.876,1.329-4.313,3.678-4.698,4.992-.458,1.564.445,5.312.294,7.047-.433,4.973-1.82,8.38-4.992,12.185-.671-1.543,1.518-3.097,2.055-4.551.396-1.073,1.144-6.267.881-7.341-.152-.62-1.896-1.685-2.202-1.615-.319.073-1.672,5.013-2.202,6.019-1.855,3.522-3.265,5.167-4.992,8.956-.238.522-1.567,2.87-2.349,2.789.98-1.293.555-3.64.881-4.698.539-1.75,5.218-7.34,4.698-8.221-.2-.339-.993.044-1.174-.294-.388-.724-1.146-2.432-1.468-3.23-.028-.069.576-.728.294-1.468-.362-.949-1.748-2.466-2.055-3.523-.515-1.771-.098-4.148-.294-5.285-.044-.254-2.886-1.322,0-4.111.888-.858,1.077.093,1.321-.147s.675-1.114,1.028-1.468Z"/>
          <path class="k" d="M68.294,84.711c.33-.627,1.712,1.648,1.762,1.762.701,1.599,1.032,3.749.44,5.432-.435-2.511-.572-5.118-2.202-7.194Z"/>
        </g>
        <path class="j" d="M27.186,121.267c.259-.062.325-.22.587-.294,1.256-.352,2.971-.176,4.111-1.174,3.327,1.821-2.567,2.247.294,4.111l-.881.587c-1.035-.987-3.716-1.625-4.111-3.23Z"/>
        <g>
          <path class="t" d="M129.367,41.401c.059.002.173.801,1.028.587,2.207-.551,2.326-2.405,6.313-2.349,1.882.027,5.434,1.32,7.047,2.349l.881,6.607c1.145,1.209,2.553,2.011,3.817,3.083,1.036.879,1.828,3.357,3.817,2.349-.205,1.453.741.509,1.762.881.302.11.575.195.881.294-1.018.952-.519,3.768-.587,3.964-.092.261-1.963,2.335-2.349,2.789-.863,1.017-1.429.932-1.468,1.028-.234.573,1.616.519-.587.881.434.679,3.429,4.137,3.23,4.698-.11.309-4.941,2.865-4.404,4.404.211.353,2.927.593,3.523.734v.587c-1.295-.409-7.843.364-8.221-.147-1.396-1.884,1.601-5.275,2.055-7.047.196-.765.375-1.544.294-2.349-2.273-.646-3.4-2.946-5.432-4.258-.692-.447-2.485-.49-2.936-.881-.646-.56-.248-3.028-1.028-4.551-1.158-2.261-4.685-2.344-6.019-4.551-.897-.198-7.025-2.27-7.341-2.055-.238.162-1.668,5.178-1.909,5.432-.391.414-2.604.713-3.23.734-.758-2.259-3.069-2.86-3.23-5.432,6.519.2,5.793-11.03,12.773-5.726,1.082-.659-.074-2.111,1.321-2.055Z"/>
          <path class="j" d="M130.542,44.337c.739.659.088,1.299,0,1.762.027-.45.09-1.408,0-1.762Z"/>
          <path class="j" d="M130.542,46.099c-.085.449.171,1.071-.147,1.468-.552-.508.142-1.394.147-1.468Z"/>
          <path class="j" d="M130.542,44.337c-.121-.108-.937.177-1.174-.147-.016-.085.954-.717,1.174.147Z"/>
        </g>
      </g>
      <path class="ar" d="M97.656,34.06c3.089-.088,5.907.597,8.956.881.172.076,1.104,2.983,1.321,3.523-2.048-.861-5.235-.742-7.194-1.468-.775-.288-3.785-1.735-3.083-2.936Z"/>
      <path class="bb" d="M117.916,40.814c.296-.532.261-1.33.44-1.468.1-.077,2.123-.248,2.496-.294,1.04-.127,1.59-.418,2.643.294-.748.402-4.226,2.761-4.404,3.377-.395,1.363.794,3.08-.881,3.964-2.141-2.471-1.866-3.048-.294-5.872Z"/>
    </g>
  </g>
</svg>